/* XPM */
static const char *Y2hhcg__[] = {
/* columns rows colors chars-per-pixel */
"64 64 217 2 ",
"   c #1C131B",
".  c #1F1820",
"X  c #271B23",
"o  c #3D1F27",
"O  c #30232C",
"+  c #441B27",
"@  c #451C29",
"#  c #4B1D2A",
"$  c #481A27",
"%  c #561E2E",
"&  c #541F31",
"*  c #43212C",
"=  c #562232",
"-  c #5B2334",
";  c #5E2538",
":  c #57343B",
">  c #452D31",
",  c #6C293D",
"<  c #65273B",
"1  c #67313F",
"2  c #6B2A40",
"3  c #752D44",
"4  c #7A2D45",
"5  c #7A2E4A",
"6  c #762F49",
"7  c #7A304A",
"8  c #763749",
"9  c #7E3A51",
"0  c #6D344F",
"q  c #5A2B7A",
"w  c #622B75",
"e  c #612C7E",
"r  c #633478",
"t  c #574A45",
"y  c #5E5A4E",
"u  c #795752",
"i  c #7E4857",
"p  c #5C664F",
"a  c #626753",
"s  c #677458",
"d  c #696556",
"f  c #5F4574",
"g  c #7C5B62",
"h  c #755379",
"j  c #7A7960",
"k  c #6C6969",
"l  c #A31A1B",
"z  c #A8191A",
"x  c #941D24",
"c  c #991C31",
"v  c #9A2127",
"b  c #882937",
"n  c #9D323C",
"m  c #B22B2F",
"M  c #C91D19",
"N  c #DB231D",
"B  c #CE2D2B",
"V  c #F72A26",
"C  c #EF302B",
"Z  c #9E5039",
"A  c #983C4C",
"S  c #993B52",
"D  c #843546",
"F  c #87267C",
"G  c #84475C",
"H  c #925057",
"J  c #B5434B",
"K  c #AB4453",
"L  c #A74852",
"P  c #BC5258",
"I  c #B44C55",
"U  c #947B56",
"Y  c #884B66",
"T  c #895A67",
"R  c #8E5875",
"E  c #935C76",
"W  c #A65164",
"Q  c #9A6563",
"!  c #99767A",
"~  c #8D6571",
"^  c #BB6777",
"/  c #A27B78",
"(  c #B27275",
")  c #C75459",
"_  c #DC5C5D",
"`  c #CB514E",
"'  c #EB4C4A",
"]  c #ED635A",
"[  c #DC5D61",
"{  c #EA7771",
"}  c #C36F64",
"|  c #74B73E",
" . c #4C9B45",
".. c #4D9D48",
"X. c #6A8958",
"o. c #6B945C",
"O. c #679A5C",
"+. c #78845C",
"@. c #4FA446",
"#. c #4EA248",
"$. c #50A446",
"%. c #56A945",
"&. c #5CAB44",
"*. c #52A549",
"=. c #58A94E",
"-. c #5BA453",
";. c #5EA954",
":. c #63AE43",
">. c #6AAF42",
",. c #73AA43",
"<. c #66B043",
"1. c #6DB342",
"2. c #71B641",
"3. c #7CBC42",
"4. c #75B842",
"5. c #64A45A",
"6. c #69A65D",
"7. c #71AE51",
"8. c #758769",
"9. c #6A9C63",
"0. c #729D65",
"q. c #759568",
"w. c #648E7C",
"e. c #708E74",
"r. c #6EA363",
"t. c #67A46B",
"y. c #78A56F",
"u. c #81BE3F",
"i. c #88C23F",
"p. c #93C63E",
"a. c #94C83F",
"s. c #82BC45",
"d. c #85AE59",
"f. c #8FB352",
"g. c #878964",
"h. c #96936D",
"j. c #A38574",
"k. c #BC8078",
"l. c #8DAB65",
"z. c #DE8078",
"x. c #8DC441",
"c. c #85C040",
"v. c #94C740",
"b. c #94C840",
"n. c #502B95",
"m. c #7B2880",
"M. c #4327B3",
"N. c #4328B4",
"B. c #5237AF",
"V. c #74458B",
"C. c #72518D",
"Z. c #4F47A5",
"A. c #7450B5",
"S. c #523BC2",
"D. c #5C44CE",
"F. c #644CD4",
"G. c #6853D7",
"H. c #765EDA",
"J. c #7959C8",
"K. c #796DD9",
"L. c #6E5CE3",
"P. c #705BE4",
"I. c #7662E6",
"U. c #7863E6",
"Y. c #7763E8",
"T. c #7863E9",
"R. c #8B558A",
"E. c #AB4F98",
"W. c #9B7882",
"Q. c #9D7C9D",
"!. c #9E7597",
"~. c #8A6F82",
"^. c #A67682",
"/. c #A07C98",
"(. c #B06C85",
"). c #9B7EA1",
"_. c #9276B3",
"`. c #8454C2",
"'. c #8269E1",
"]. c #668689",
"[. c #70998D",
"{. c #779699",
"}. c #7B8EA8",
"|. c #7E82C1",
" X c #9F819B",
".X c #B69E9F",
"XX c #BC8781",
"oX c #A4A49A",
"OX c #AF93A4",
"+X c #B3ABAE",
"@X c #CE8F8B",
"#X c #EB958D",
"$X c #DAA195",
"%X c #E6A396",
"&X c #F0A399",
"*X c #C7B5BD",
"=X c #C6A9A9",
"-X c #EBB6A8",
";X c #EDB4A8",
":X c #AFD199",
">X c #C6DFA6",
",X c #FBC3AD",
"<X c #F5C1AB",
"1X c #F0C3B5",
"2X c #B3A5E2",
"3X c #C6D5C1",
"4X c #D7CCCD",
"5X c #EBDAC5",
"6X c #EADDD5",
"7X c #DFE0D2",
"8X c #EDEDDD",
"9X c #E9E5D7",
"0X c #F2E6D8",
"qX c #ECF0DE",
"wX c #F1E2CF",
"eX c #FAF9F7",
"rX c #EEEEE1",
/* pixels */
"@.@.@.@.@.@.@.@.@.@.@.@... ...@.@.@.@.@.$.@.@.@.@.@.@.@.@.@.@.@.@.@.#.....$.$.@.@.@.@.@.@.@.@.@.@.@.:.| 4.%.@.@.@.@.@.....@.@.@.",
"@.@.@.@.@.@.@.@.@.@.@.@. . . .@.@.@.@.$.@.@.@.@.@.@.@.@.@.@.@.@.@.@.@.@.@.@.@.@.@.@.@.@.@.@.@.@.@.@.1.v.b.&.@.@.$.@.$.@.@.@.@.@.",
"@.@.@.@.@.@.@.@.@.@.@.@. . . .@.@.$.$.@.$.@.@.@.@.@.$.$.@.@.@.@.@.$.@.@.$.@.@.@.@.@.@.@.@.@.@.@.$.@.1.a.a.&.@.@.@.@.@.$.@.@.@.@.",
"@.@.@.@.@.@.@.@.@.@.@.@.@.@...@.@.$.@.@.@.@.@.@.r.i 2 0 O.@.@.@.@.$.@.6.a O.@.@.@.@.@.@.@.@.@.@.@.@.%.>.:.$.@.@.@.@.@.@.@.@.@.@.",
"@.@.@.@.@.@.@.@.@.@.@.@.@.@.@.@.@.@.@.@.@.@.-.T 7 7 5 5 3 t 5.@.@.@.y @ @ @ O.@.@.@.@.@.@.@.@.@.@.$.@.$.@.$.@.@.@.@.@.@.@.@.$.@.",
"@.@.@.@.@.@.@.@.@.@.@.@.@.@.@.@.@.@.@.@.@.=.7 5 7 4 K K D + + O.O.* @ + @ @ s @.@.@.@.@.@.@.@.@.@.@.@.@.@.@.@.@.@.@.@.@.@.@.@.@.",
"@.@.@.@.@.@.@.@.@.@.@.@.@.@.@.$.@.@.@.@.3.7 5 5 S _ ) D # & 3 .X4XoX! # : g g $.@.@.@.@.@.@.@.@.@.@.@.@.@.@.@.@.@.@.@.@.@.@.@.@.",
"@.@.@.@.@.@.@.@.@.@.@.@.@.@.@.@.@.@.$.@.h.7 7 K [ j.# < 4 4 / rX.   k T 9X7XX +X@.@.@.@.@.@.@.@.@.@.@.@.@.@.@.@.@.@.@.@.@.@.@.@.",
"@.@.@.@.@.@.@.@.@.@.@.@.$.@.@.@.@.@.$.O.5 7 K } $.> = < 5 7 +XrXO   k 9X+XoX  k s @.@.@.$.@.@.@.@.@.@.@.@.@.@.@.@.@.@.@.@.@.@.@.",
"@.@.@.@.@.@.@.@.@.@.@.@.@.@.$.@.@.@.5.5 4 5 h.@.=.@ @ ; 5 Y  X8X9X>X=X!.+X9XX k 1 @.@.@.@.@.@.$.@.@.@.@.@.@.@.@.@.@.@.@.@.@.@.@.",
"@.@.@.@.@.@.@.@.@.@.@.@.@.@.@.@.@.p 4 D 7 +.$.@.t @ @ 4 4 5 7 Y T g 7 7 9 rXrX*X3 o.@.@.@.@.@.@.@.@.@.@.@.@.@.@.@.@.@.@.@.@.@.@.",
"@.@.@.@.@.@.@.@.@.$.@.$.@.@.@.@.t - 5 5 j @.@.-.@ @ @ < 4 5 , 4 = # 4 7 5 @ 4 2 4 s @.@.@.@.@.$.@.@.@.@.@.@.@.@.@.@.@.@.@.@.@.@.",
"@.@.@.@.@.@.@.@.@.@.$.$.@.@.@.a % 5 5 5 =.@.=.@ @ @ @ % 2 - # @ @ u - 3 - # , # = s $.$.@.@.$.@.@.@.@.@.@.@.@.@.@.@.@.@.@.@.@.@.",
"@.@.@.@.@.@.@.@.@.@.@.@.@.@.s + < 7 5 u @.@.* @ @ @ @ # # : X     ! @ @ + T @ @ : $.@.@.@.@.@.@.@.@.@.@.@.@.@.@.@.@.@.@.@.@.@.@.",
"@.@.@.@.@.@.@.@.@.@.@.$.@.$.@ # 6 5 5 -.@.5.@ @ + @ # < @ ( j.OXW.,X@ 8 O X @ s.$.@.$.@.@.@.@.@.@.@.@.@.@.@.@.@.@.@.@.@.@.@.@.@.",
"@.@.@.@.@.@.@.@.@.@.@.@.@.8.@ - 5 5 5 @.@.5.@ @ @ @ ; 4 # -X<X0X# ,X;X,X.X* @ X.b.a.&.$.@.$.@.$.@.@.@.@.@.@.@.@.@.@.@.@.@.@.@.@.",
"@.@.@.@.@.@.@.@.@.@.@.@.@.* @ 4 5 5 8.$.@.-.@ @ @ @ 5 4 6 - &X&X;X,X,X,X@XXX@ 3 8 G &.@.@.@.@.@.@.@.@.@.@.@.@.@.@.@.@.@.@.@.@.$.",
"@.@.@.@.@.@.@.@.@.@.@.@.@.@ @ 6 5 5 o.@.@.@.> @ @ @ < 5 5 6 6 < ,X,X,Xk.,X@X$ 6 2 u &.@.@.@.@.@.@.@.@.@.@.@.@.$.@.@.@.@.@.@.@.@.",
"@.@.@.@.@.@.@.@.@.3.a.a.$.@ @ 1 ; 5 9.@.$.@.$.o d < I 5 3 5 - 8 ,X,XH ,X$X= @ @ @ ;.@.$.@.@.$.@.@.@.@.@.@.@.@.@.@.@.@.@.@.@.@.@.",
"@.@.@.@.@.@.@.@.@.3.a.p.$.a @ @ @ ; q.@.@.@.@.;.Q P J D # @ # 3 ( ( ( / o.s @ t ;.@.@.@.@.@.@.@.@.@.@.@.@.@.@.@.$.@.@.@.$.@.@.@.",
"@.@.@.@.@.@.@.@.@.3.b.a.$.-.+ @ p @ X.@.@.@.@.r.L I b - % x l 4 m N N N U @.@.@.@.@.@.@.@.@.@.@.@.@.@.@.@.@.@.@.$.@.$.@.@.@.@.@.",
"@.@.@.@.@.@.@.@.@.@.@.@.@.@.5.@ $.p X.@.@.@.@.b ) b l ) v N l K ' m M z B ] 6.$.@.@.@.$.@.@.@.@. . . .@.@.$.@.@.a.b.x.$.$.@.@.@.",
"@.@.@.@.@.@.@.@.$.@.@.@.@.$.@.9.@.@.$.@.@.@.q.W x v L /.6Xz R._ ' 9XN B 0XrXqX8X:X@.$.@.@.@.@.@. . . .@.@.@.@.@.b.a.x.$.@.@.@.@.",
"@.@.@.@.@.@.@.@.@.$.@.@.$.@.@.@.@.@.@.@.@.$.Y /.x A !.6X%XA.1X#X{ wX@X=XqXqXqXwX0X@.@.@.@.@.@.$. . . .@.@.@.@.@.x.p.i.@.@.@.@.@.",
"@.@.@.@.@.@.@.@.@.@.@.@.@.@.@.@.@.@.@.$.$.W _ ^ E !.W B `.I.'.E.$Xm Y qX8X8X' V C @.@.$.@.@.@.@.@.@.@.@.@.@.@.@.@.@.@.@.@.@.@.@.",
"@.@.@.@.@.@.@.@.@.@.@.@.@.@.@.@.@.@.@.@.Q [ _ ) G Q.^.%XI.I.I.E.8X8XY 8X8X` N ' m $.@.@.@.@.@.@.@.@.@.@.@.@.@.@.@.@.@.@.@.@.@.@.",
"@.@.@.@.@.@.@.@.@.@.@.@.@.@.@.@.@.@.@.@.L _ _ A i T ^.%XF.I.I.E.8X*XR /.*Xl m _ _ I 6.@.@.$.@.@.@.@.@.@.@.@.@.@.@.@.@.@.@.@.@.@.",
"@.@.@.@.@.@.@.@.@.@.@.@.@.@.@.@.$.@.@.@.5.I Q o.@.@.^.%Xn.N.M.F qXqXQ.R E o.o.P #X,X%X6.@.@.@.@.@.@.@.@.@.@.@.@.@.@.@.@.@.@.@.@.",
"@.@.@.@.@.@.@.@.@.@.@.@.@.@.@.@.@.@.$.@.@.@.@.@.@.@.b ` ~.0 M.F -X-X^ l f.@.=.n 1XwX,Xj @.@.@.$.@.@.@.@.@.@.@.@.@.@.@.@.@.@.@.@.",
"@.@.@.@.@.@.@.@.@.@.@.@.@.@.@.@.@.%.<.:.%.$.@.$.$.@.H U -.q N.m.c c c Z 3.! z.C V 5X5Xq.@.@.@.@.@.@.@.@.@.@.@.@.@.@.@.@.@.@.@.@.",
"@.@.@.@.@.@.@.@.@.@.@.@.@.@.@.@.@.<.a.a.:.$.$.$.@.$.@.$.f M.N.N.S.L.L.$.5.G ;XJ V ] g.@.@.@.@.@.@.@.@.@.@.@.@.@.@.@.@.@.@.@.@.@.",
"@.@.@.@.@.@.@.@.@.@.@.@.@.@.@.@.@.<.a.a.:.$.$.$.$.@.@.q.M.N.S.P.Y.I.I.K.$.$.( @XV U @.@.@.@.@.@.@.@.@.@.@.@.@.@.@.@.@.@.@.@.@.@.",
"@.1.2.1.@.@.@.@.@.@.@.@.@.@.$.2.2.| 2.2.2.2.2.$.@.@.$.w N.N.Y.T.T.Y.T.I.}.@.G ! @X@.@.@.@.$.@.@.@.@.$.@.@.@.@.@.@.@.@.@.@.@.@.@.",
"@.p.p.p.#.@.@.@.@.@.$.@.@.@.$.a.p.3.@.@.s.b.a.$.@.@.0.G.M.N.U.I.Y.Y.Y.Y.Y.@.$.=.5.@.@.@.@.@.@.@.@.@.@.@.@.@.@.@.@.@.@.@.@.@.@.@.",
"@.p.a.p.@.@.@.$.@.@.@.@.@.@.$.v.a.3.@.@.u.p.a.$.@.@.V.I.F.M.G.Y.Y.Y.Y.Y.Y.[.@.@.@.@.$.@.@.@.@.@.@.@.@.@.@.@.@.@.@.@.@.@.@.@.@.@.",
"@.<.<.:.@.$.@.@.@.@.@.@.@.@.$.<.:.1.3.3.1.<.<.@.$.0.U.I.F.M.S.G.S.Y.Y.Y.Y.I.@.$.$.@.@.@.@.@.@.%.3.3.>.@.@.@.@.@.@.@.@.@.@.@.@.@.",
"@.@.@.@.@.@.@.@.@.@.@.@.@.@.@.@.@.<.a.p.:.@.@.@.@.r Y.T.D.N.q n.B.Y.I.Y.Y.I.*.@.@.@.@.@.@.@.@.%.a.a.| @.@.@.@.@.@.@.@.@.@.@.@.@.",
"$.@.@.@.@.@.@.@.@.@.@.@.@.@.@.@.@.<.a.a.:.@.@.@.@.V.I.I.M.M.n.8 C.Y.Y.I.Y.I.{.@.@.@.@.@.$.@.@.%.a.a.4.@.@.%.@.@.@.@.@.@.@.@.@.@.",
"$.@.@.@.@.@.@.@.@.@.@.@.@.@.@.@.@.%.&.&.%.@.@.@.0.H.I.I.M.N.n.=.r.I.Y.I.Y.T.}...@.@.@.$.@.i.c.u.&.&.2.c.c.&.@.@.@.@.@.@.@.@.@.@.",
"@.@.@.@.@.$.@.@.@.@.$.@.@.@.@.@.@.@.@.$.@.@.@.@.h I.T.F.N.N.w.$.$.C.Y.Y.Y.Y.I. .@.@.@.@.@.a.a.x.@.@.1.a.a.&.@.@.@.@.@.@.@.@.@.@.",
"@.@.@.@.@.@.@.@.@.@.@.@.@.@.@.@.@.@.@.@.@.@.@.@.w U.U.M.N.N.$.$.$.8.I.I.Y.T.I...@.@.@.@.@.a.a.i.@.@.1.a.a.%.@.@.@.@.@.@.@.@.@.@.",
"@.@.@.@.@.@.@.@.@.@.@.@.@.@.@.@.@.@.@.@.@.@.@.r.N.G.S.M.M.].$.@.$.;.A.I.Y.Y.U.[.@.$.@.@.@.%.%.&.x.i.2.%.*.$.@.@.@.@.@.@.@.@.@.@.",
"@.@.@.@.@.@.@.@.@.@.@.@.@.@.@.@.$.$.@.@.@.@.@.0.N.N.M.M.Z.$.$.$.$.$.6.J.I.Y.I.|.@.@.@.@.$.@.@.%.a.a.| @.@.$.@.@.@.@.@.@.@.@.@.@.",
"@.@.@.@.@.@.@.@.@.@.@.@.@.@.@.@.@.@.@.@.@.@.$.8.M.N.N.Z.$.$.$.$.@.$.$.6.J.Y.I.Y.}.$.$.@.@.$.@.%.a.p.4.@.$.@.@.@.@.@.@.@.@.@.@.@.",
"@.@.@.@.@.@.@.@.@.@.@.@.@.@.@.@.@.@.@.@.@.@.@.w N.M.N.].$.$.$.$.$.$.$.$.h I.I.Y.Y.[.@.@.@.@.$.@.$.%.$.@.@.@.@.@.@.@.@.@.@.@.@.@.",
"@.@.@.@.@.@.@.@.@.@.@.@.@.@.@.@.@.@.@.@.@.@.@.w M.M.N.].$.$.#.$.@.@.@.$.r.H.I.Y.Y.K.@.@.$.@.@.@.@.@.@.@.@.@.@.@.@.@.@.@.@.@.@.@.",
"@.@.@.@.@.@.@.@.@.@.@.@.@.@.@.@.@.@.@.@.@.@.5.n.M.N.N.w.$.$.$.@.$.$.$.$.$.q.I.Y.Y.T.t.@.@.@.@.@.@.@.@.@.@.@.@.@.@.@.@.@.@.@.@.@.",
"@.@.@.@.@.@.@.@.@.@.@.@.@.@.@.@.$.@.@.@.@.@.6.N.N.N.N.$.>.a.p.&.@.$.$.@.$.$.q.I.I.Y.{.@.@.@.@.$.$.@.@.@.@.@.$.$.@.@.@.@.@.@.@.@.",
"@.@.@.@.@.@.@.@.@.@.@.@.@.$.$.$.@.$.@.@.@.@.0.N.N.M.].$.<.b.b.&.$.$.$.$.$.$.$.8.I.T.K.@.@.@.$.@.@.@.$.$.@.@.$.@.@.@.@.@.@.@.@.@.",
"@.@.@.@.$.@.@.@.$.$.@.@.@.@.@.$.@.@.@.@.@.@.r N.N.Z.$.@.<.b.b.&.$.$.$.@.$.$.$.;.A.I.T.@.$.@.@.@.@.@.@.@.@.$.@.@.@.@.@.@.@.@.@.@.",
"@. . . .@.@.@.@.@.$.@.@.a.a.p.@.@.$.@.@.@.@.w N.N.9.$.$.@.@.$.#.$.$.$.$.$.$.$.$.h U.I.=.$.@.@.@.@.@.1.a.a.a.p.a.@.@.@.@.@.@.@.@.",
"$. . . .@.@.@.$.@.@.@.@.p.p.v.@.@.@.@.@.@.$.e M.B.$.$.$.@.@.$.$.$.$.$.$.$.$.$.$.5.H.U.{.$.$.@.@.@.@.1.a.a.a.a.a.@.@.@.@.@.@.@.@.",
"$. . . .@.$.@.@.@.@.@.@.a.b.x.@.@.@.@.@.@.0.N.M.w.$.$.$.$.$.$.$.$.$.$.$.$.$.$.$.$.h Y.K.@.@.@.$.@.@.1.b.b.b.b.v.@.@.@.@.@.@.@.@.",
"@.@.@.@.@.$.@.@.@.@.@.@.@.@.@.@.@.@.@.@.$.h N.N.$.@. . ...$.$.$.$.$.$.$.$.$.$.$.$.G I.T.$.@.$.@.@.@.$.@.$.$.$.$.@.@.@.@.@.@.@.@.",
"@.@.@.$.@.@.@.@.@.@.@.@.@.@.@.@.$.@.@.@.0.A.B.).y.$. . . .@.$.$.$.$.$.$.$.$.$.$.$.E 2XU.3X@.$.$.@.@.@.@.@.@.@.@.@.@.@.@.@.@.@.@.",
"$.@.@.@.@.@.@.@.@.@.@.@.@.@.@.@.@.@.@.@.0.R.V.).y.$. ... .$.$.@.$.$.$.$.$.$.$.$.$.W.eX_.eX@.@.@.@.@.@.@.$.@.@.@.@.@.@.@.@.@.@.@.",
"@.@.@.@.@.@.@.@.@.$.@.@.@.@.@.@.@.$.$.@.0.Y S ! $.$.@.@.$.$.$.$.$.$.$.$.$.$.$.$.$.h.4XQ.OX$.@.@.@.@.@.@.@.@.@.@.@.@.@.@.@.@.@.@.",
"@.@.@.@.@.@.@.@.@.@.@.@.@.$.@.@.$.@.$.=.b 4 l g.$.$.$.$.$.$.$.$.@.$.$.$.$.$.$.$.$.0.V (.^ ` @.@.@.@.@.@.@.@.@.@.@.@.@.@.@.@.@.@.",
"@.@.@.$.@.@.@.@.@.@.@.@.@.@.@.@.@.*.~ /.E l v l.$.$.$.$.$.$.$.$.$.$.$.$.@.$.@.$.$.,.C #XeX' $.$.@.@.@.@.@.@.@.@.@.$.$.$.@.@.@.@.",
"@.@.@.@.@.@.@.@.@.@.@.@.@.@.@.$.@.T Q.Q.Q.H S d.$.$.$.$.$.$.@.$.$.$.@.$.$.$.$.$.$.,.{ eXeXeX:X@.@.@.@.@.@.@.@.@.@.@.@.@.$.$.@.@.",
"@.@.@.@.@.@.@.@.@.@.@.@.@.@.@.@.@.9 Q.Q.G h.7.%.$.$.@.$.$.$.$.@.$.@.$.$.$.$.$.@.$.,.eXeXeXeX>X@.@.@.@.@.@.@.@.@.@.@.@.@.@.@.@.@.",
"@.@.@.@.@.@.%.&.&.$.@.@.@.@.@.@.@.@.d.d.%.&.%.$.$.$.$.@.$.&.&.&.&.&.$.$.$.$.$.$.@.$.d.! ^.h.d.&.$.@.@.@.@.@.@.$.&.&.&.&.&.%.@.$.",
"$.@.@.$.@.@.:.a.a.:.$.$.@.@.@.@.$.@.$.@.i.a.a.$.@.$.@.$.<.a.a.a.a.a.@.$.$.$.$.$.$.@.$.@.@.a.a.x.$.@.@.@.@.@.@.$.a.a.a.a.a.4.@.@.",
"@.@.@.@.@.@.:.a.b.:.@.@.@.@.@.@.$.@.@.$.s.b.a.$.$.$.$.@.<.a.a.a.v.a.@.@.@.@.@.@.@.@.$.@.@.a.a.i.$.@.@.@.@.@.@.$.p.a.a.a.a.| @.@."
};
