/* XPM */
static const char *Y29pbg__[] = {
/* columns rows colors chars-per-pixel */
"64 64 104 2 ",
"   c #211D2B",
".  c #211F2C",
"X  c #221E2C",
"o  c #221E2D",
"O  c #231F2D",
"+  c #75B63E",
"@  c #77B93E",
"#  c #4B9943",
"$  c #4B9B42",
"%  c #4B9945",
"&  c #4A9A45",
"*  c #4B9B46",
"=  c #4C9A44",
"-  c #4B9E44",
";  c #4D9D44",
":  c #4C9F45",
">  c #4E9E45",
",  c #4DA044",
"<  c #4DA244",
"1  c #4EA345",
"2  c #4DA046",
"3  c #4EA147",
"4  c #4FA246",
"5  c #4EA346",
"6  c #4DA445",
"7  c #4FA544",
"8  c #4FA446",
"9  c #4EA546",
"0  c #4FA447",
"q  c #4EA547",
"w  c #4CA646",
"e  c #4FA647",
"r  c #4EA348",
"t  c #52A742",
"y  c #50A347",
"u  c #50A444",
"i  c #50A645",
"p  c #53A745",
"a  c #50A446",
"s  c #50A547",
"d  c #51A547",
"f  c #52A646",
"g  c #56A844",
"h  c #57A945",
"j  c #57A947",
"k  c #59AA44",
"l  c #5CAA44",
"z  c #5DAA44",
"x  c #5CAA45",
"c  c #50A548",
"v  c #51A648",
"b  c #60AB42",
"n  c #62AE42",
"m  c #63AF43",
"M  c #65AE42",
"N  c #65AE43",
"B  c #66AF43",
"V  c #65AE45",
"C  c #64B043",
"Z  c #67B142",
"A  c #6FB342",
"S  c #6DB641",
"D  c #6EB442",
"F  c #6FB543",
"G  c #71B440",
"H  c #75B942",
"J  c #77B842",
"K  c #CF8933",
"L  c #CF8934",
"P  c #D08A35",
"I  c #E1B433",
"U  c #E0B334",
"Y  c #E3B335",
"T  c #E1B435",
"R  c #E0B535",
"E  c #87C33F",
"W  c #91C53D",
"Q  c #90C63D",
"!  c #90C53F",
"~  c #93C53E",
"^  c #93C73E",
"/  c #94C63F",
"(  c #93C93F",
")  c #94C93D",
"_  c #94C83F",
"`  c #95C83F",
"'  c #95CA3E",
"]  c #8DC540",
"[  c #8FC440",
"{  c #8DC442",
"}  c #95C740",
"|  c #94C840",
" . c #95C940",
".. c #95C941",
"X. c #95C943",
"o. c #F5F38E",
"O. c #F6F48F",
"+. c #F5FDFF",
"@. c #F5FFFF",
"#. c #F6FFFE",
"$. c #F6FEFF",
"%. c #F6FFFF",
"&. c #F7FFFF",
"*. c #F8FDFF",
/* pixels */
"8 8 8 8 8 8 8 8 1 8 8 8 : - : 8 &.&.&.&.&.&.&.&.&.&.&.&.&.&.&.&.&.&.&.&.&.&.&.&.&.&.&.&.8 8 8 8 8 1 b + J g 8 8 8 8 1 : : 1 1 8 ",
"8 8 8 8 8 8 8 8 8 8 8 1 % % = 8 &.&.&.&.&.&.&.&.&.&.&.&.&.&.&.&.&.&.&.&.&.&.&.&.&.&.&.&.8 8 8 8 8 8 S }  .k 8 8 s 8 s 8 8 1 1 8 ",
"8 8 8 8 8 8 8 8 8 8 8 1 % % % 8 &.&.&.&.&.&.&.&.&.&.&.&.&.&.&.&.&.&.&.&.&.&.&.&.&.&.&.&.8 8 8 8 s 8 S _ _ x 8 8 8 8 8 s 8 1 8 8 ",
"8 8 8 8 8 8 8 8 8 8 8 8 1 1 1 8 &.&.&.&.&.&.&.&.&.&.&.&.&.&.&.&.&.&.&.&.&.&.&.&.&.&.&.&.8 8 8 8 8 8 g V B s 8 8 8 8 8 1 8 8 8 8 ",
"8 8 8 8 8 8 8 8 8 s 8 8 &.&.*.&.X X X X X X X X X X X X X X X X X X X X X X X X X X X X &.&.&.&.8 s 8 s 8 y 8 8 8 8 1 8 8 8 s 8 ",
"8 8 8 8 8 8 8 8 8 1 8 8 &.&.&.&.X X X X X X X X X X X X X X X X X X X X X X X X X X X X &.&.&.&.8 8 8 8 8 8 8 8 8 8 1 8 1 8 1 8 ",
"8 8 8 8 8 8 8 8 8 1 8 8 &.&.&.&.X X X X X X X X X X X X X X X X X X X X X X X X X X X X &.&.&.&.8 8 8 8 8 8 8 8 8 8 8 8 8 8 8 8 ",
"8 8 8 8 8 8 8 8 8 8 8 8 &.&.&.&.X X X X X X X X X X X X X X X X X X X X X X X X X X X X &.&.&.&.8 8 8 8 8 8 8 8 8 8 8 8 1 8 1 8 ",
"8 8 8 8 8 8 8 8 &.&.&.&.X X X X &.&.&.&.&.&.&.&.&.&.&.&.&.&.&.&.&.&.&.&.&.&.&.&.&.&.&.&.X X X X &.&.&.&.8 8 8 8 8 8 8 8 8 8 8 8 ",
"8 8 8 8 8 8 8 8 &.&.&.&.X X X X &.&.&.&.&.&.&.&.&.&.&.&.&.&.&.&.&.&.&.&.&.&.&.&.&.&.&.&.X X X X &.&.&.&.8 8 8 8 8 8 8 8 8 8 8 8 ",
"8 8 8 8 8 8 8 8 &.&.&.&.X X X X &.&.&.&.&.&.&.&.&.&.&.&.&.&.&.&.&.&.&.&.&.&.&.&.&.&.&.&.X X X X &.&.&.&.8 8 8 8 8 8 8 8 8 8 8 8 ",
"8 8 8 8 8 8 8 8 &.&.&.&.X X X X &.&.&.&.&.&.&.&.&.&.&.&.&.&.&.&.&.&.&.&.&.&.&.&.&.&.&.&.X X X X &.&.&.&.8 8 8 8 8 8 8 8 8 8 8 8 ",
"8 8 8 8 &.&.&.&.X X X X &.&.&.&.&.&.&.&.&.&.&.&.&.&.&.&.&.&.&.&.&.&.&.&.&.&.&.&.&.&.&.&.&.&.&.&.X X X X &.&.&.&.8 8 8 8 8 8 8 8 ",
"8 8 8 8 &.&.&.&.X X X X &.&.&.&.&.&.&.&.&.&.&.&.&.&.&.&.&.&.&.&.&.&.&.&.&.&.&.&.&.&.&.&.&.&.&.&.X X X X &.&.&.&.8 8 8 8 8 8 8 8 ",
"8 8 8 8 &.&.&.&.X X X X &.&.&.&.&.&.&.&.&.&.&.&.&.&.&.&.&.&.&.&.&.&.&.&.&.&.&.&.&.&.&.&.&.&.&.&.X X X X &.&.&.&.8 8 8 8 8 8 8 8 ",
"8 8 8 8 &.&.&.&.X X X X &.&.&.&.&.&.&.&.&.&.&.&.&.&.&.&.&.&.&.&.&.&.&.&.&.&.&.&.&.&.&.&.&.&.&.&.X X X X &.&.&.&.8 8 8 8 8 8 8 8 ",
"8 8 8 8 &.&.&.&.X X X X &.&.&.&.&.&.&.&.&.&.&.&.&.&.&.&.&.&.&.&.&.&.&.&.&.&.&.&.&.&.&.&.&.&.&.&.X X X X &.&.&.&.8 8 8 8 8 8 8 s ",
"8 8 8 8 &.&.&.&.X X X X &.&.&.&.&.&.&.&.&.&.&.&.&.&.&.&.&.&.&.&.&.&.&.&.&.&.&.&.&.&.&.&.&.&.&.&.X X X X &.&.&.&.8 8 8 8 8 8 8 1 ",
"8 8 8 8 &.&.&.&.X X X X &.&.&.&.&.&.&.&.&.&.&.&.&.&.&.&.&.&.&.&.&.&.&.&.&.&.&.&.&.&.&.&.&.&.&.&.X X X X &.&.&.&.8 8 8 8 8 8 8 8 ",
"8 8 8 8 &.&.&.&.X X X X &.&.&.&.&.&.&.&.&.&.&.&.&.&.&.&.&.&.&.&.&.&.&.&.&.&.&.&.&.&.&.&.&.&.&.&.X X X X &.&.&.&.s 8 8 8 s 8 8 8 ",
"8 8 8 8 &.&.&.&.X X X X &.&.&.&.L L L L L L L L L L L L L L L L L L L L L L L L L L L L X X X X &.&.&.&.&.&.&.&.s 1 s 8 8 8 8 8 ",
"8 8 8 8 &.&.&.&.X X X X &.&.&.&.L L L L L L L L L L L L L L L L L L L L L L L L L L L L X X X X &.&.&.&.&.&.&.&._  .] s s 8 8 8 ",
"8 8 8 8 &.&.&.&.X X X X &.&.&.&.L L L L L L L L L L L L L L L L L L L L L L L L L L L L X X X X &.&.&.&.&.&.&.&. ._ ] y 8 8 8 8 ",
"8 8 8 8 &.&.&.&.X X X X &.&.&.&.L L L L L L L L L L L L L L L L L L L L L L L L L P L L X X X X &.&.&.&.&.&.&.&.] ~ E 8 8 8 8 8 ",
"8 8 8 8 &.&.&.&.X X X X &.&.&.&.T T T T T T T T T T T T T T T T T T T T T T T T T T T T X X X X X X X X X X X X &.&.&.&.8 8 8 8 ",
"8 8 8 8 &.&.&.&.X X X X &.&.&.&.T T T T T T T T T T T T T T T T T T T T T T T T T T T T X X X X X X X X X X X X &.&.&.&.8 8 8 8 ",
"8 8 8 8 &.&.&.&.X X X X &.&.&.&.T T T T T T T T T T T T T T T T T T T T T T T T T T T T X X X X X X X X X X X X &.&.&.&.8 8 8 8 ",
"8 8 8 8 &.&.&.&.X X X X &.&.&.&.T T T T T T T T T T T T T T T T T T T T T T T T T T T T X X X X X X X X X X X X &.&.&.&.8 8 8 8 ",
"8 8 8 8 8 8 8 8 &.&.&.&.X X X X T T T T T T T T T T T T T T T T T T T T T T T T o.o.o.o.L L L L T T T T T T T T X X X X &.&.&.&.",
"8 8 8 8 8 8 8 8 &.&.&.&.X X X X T T T T T T T T T T T T T T T T T T T T T T T T o.o.o.o.L L L L T T T T T T T T X X X X &.&.&.&.",
"8 8 8 8 8 8 8 8 &.&.&.&.X X X X T T T T T T T T T T T T T T T T T T T T T T T T o.o.o.o.L L L L T T T T T T T T X X X X &.&.&.&.",
"8 8 8 8 8 8 8 8 &.&.&.&.X X X X T T T T T T T T T T T T T T T T T T T T T T T T o.o.o.o.L L L L T T T T T T T T X X X X &.&.&.&.",
"8 S G A 8 8 8 8 &.&.&.&.X X X X T T T T o.o.o.o.T T T T T T T T o.o.o.o.T T T T T T T T X X X X X X X X T T T T X X X X &.&.&.&.",
"8 ~ ~ ~ r 8 8 8 &.&.&.&.X X X X T T T T o.o.o.o.T T T T T T T T o.o.o.o.T T T T T T T T X X X X X X X X T T T T X X X X &.&.&.&.",
"8 ~ _ ~ 8 1 8 s &.&.&.&.X X X X T T T T o.O.o.o.T T T T T T T T o.o.O.o.T T T T T T T T X X X X X X X X T T T T X X X X &.&.&.&.",
"8 Z Z B 8 s 8 8 &.&.&.&.X X X X T T T T o.o.o.o.T T T T T T T T o.o.o.o.T T T T T T T T X X X X X X X X T T T T X X X X &.&.&.&.",
"8 8 8 8 8 8 8 8 &.&.&.&.X X X X T T T T T T T T T T T T o.o.o.o.T T T T T T T T T T T T X X X X X X X X T T T T X X X X &.&.&.&.",
"s 8 8 8 8 8 8 8 &.&.&.&.X X X X T T T T T T T T T T T T o.O.o.o.T T T T T T T T T T T T X X X X X X X X T T T T X X X X &.&.&.&.",
"s 8 8 8 8 8 8 8 &.&.&.&.X X X X T T T T T T T T T T T T o.o.o.o.T T T T T T T T T T T T X X X X X X X X T T T T X X X X &.&.&.&.",
"8 8 8 8 8 s 8 8 &.&.&.&.X X X X T T T T T T T T T T T T o.o.o.o.T T T T T T T T T T T T X X X X X X X X T T T T X X X X &.&.&.&.",
"8 8 8 8 8 8 8 8 &.&.&.&.X X X X T T T T o.o.o.o.T T T T T T T T T T T T T T T T o.o.o.o.X X X X T T T T T T T T X X X X &.&.&.&.",
"8 8 8 8 8 8 8 8 &.&.&.&.X X X X T T T T o.o.o.o.T T T T T T T T T T T T T T T T o.o.o.o.X X X X T T T T T U T T X X X X &.&.&.&.",
"8 8 8 8 8 8 8 8 &.&.&.&.X X X X T T T T o.O.o.o.T T T T T T T T T T T T T T T T o.o.o.o.X X X X T T T T T T T T X X X X &.&.&.&.",
"8 8 8 8 8 8 8 8 &.&.&.&.X X X X T T T T o.o.o.o.T T T T T T T T T T T T T T T T o.o.o.o.X X X X T T T T T T T T X X X X &.&.&.&.",
"8 8 8 8 8 8 8 8 &.&.&.&.X X X X T T T T T T T T T T T T T T T T o.o.o.o.T T T T T T T T L L L L T T T T X X X X &.&.&.&.8 8 8 8 ",
"8 8 8 8 8 8 8 8 &.&.&.&.X X X X T T T T T T T T T T T T T T T T o.o.O.o.T T T T T T T T L L L L T T T T X X X X &.&.&.&.8 8 8 8 ",
"8 8 8 8 8 8 8 8 &.&.&.&.X X X X T T T T T T T T T T T T T T T T o.o.o.o.T T T T T T T T L L K L T T T T X X X X &.&.&.&.8 8 8 8 ",
"8 8 8 8 8 8 8 8 &.&.&.&.X X X X T T T T T T T T T T T T T T T T o.o.o.o.T T T T T T T T L L L L T T T T X X X X &.&.&.&.8 8 8 8 ",
"8 8 8 8 8 8 8 8 &.&.&.&.X X X X T T T T T T T T T T T T o.o.o.o.T T T T T T T T T T T T X X X X X X X X &.&.&.&.8 8 8 8 8 8 8 8 ",
"8 1 1 8 s 8 8 8 &.&.&.&.X X X X T T T T T T T T T T T T o.o.o.o.T T T T T T T T T T T T X X X X X X X X &.&.&.&.8 8 8 8 8 8 8 8 ",
"8 % % % 8 8 8 8 &.&.&.&.X X X X T T T T T T T T T T U T o.o.o.o.T T T T T T T T T T T T X X X X X X X X &.&.&.&.8 8 8 8 8 8 8 8 ",
"s % % % 8 8 8 s &.&.&.&.X X X X T T T T T T T T T T T T o.o.o.o.T T T T T T T T I T T T X X X X X X X X &.&.&.&.8 8 8 8 8 8 8 8 ",
"s $ % $ 8 s 8 8 &.&.&.&.X X X X o.o.o.o.o.o.o.o.o.o.o.o.o.o.o.o.o.o.o.o.o.o.o.o.o.o.o.o.X X X X &.&.&.&. . . .} 8 8 8 8 8 8 8 8 ",
"8 1 8 1 8 s 8 8 &.&.&.&.X X X X o.o.o.o.o.o.o.o.o.o.o.o.o.o.o.o.o.o.o.o.o.o.o.o.o.o.O.o.X X X X &.&.&.&.y y y s 8 8 8 8 8 8 8 8 ",
"8 8 8 v 8 8 8 8 &.&.&.&.X X X X o.o.o.o.o.o.o.o.o.o.o.o.o.o.o.o.o.o.o.o.o.o.o.o.o.o.o.o.X X X X &.&.&.&.8 8 8 8 8 8 8 8 8 8 8 8 ",
"s 8 1 8 8 8 8 8 &.&.&.&.X X X X o.o.o.o.o.o.o.o.o.o.o.o.o.o.o.o.o.o.o.o.o.o.o.o.o.o.o.o.X X X X &.&.&.&.8 8 8 8 8 8 8 8 8 8 8 8 ",
"8 8 8 8 8 8 8 8 &.&.&.&.  X X X X X X X X X X X X X X X X X X X X X X X X X X X X X X X X X X X &.&.&.&.8 8 8 8 8 8 8 8 8 1 8 8 ",
"8 8 8 8 8 8 8 8 &.&.&.&.  X X X X X X X X X X X X X X X X X X X X X X X X X X X X X X X X X X X &.&.&.&.8 8 8 8 8 8 8 8 8 8 8 8 ",
"8 1 8 s 8 8 8 8 &.&.&.&.X X X X X X X X X X X X X X X X X X X X X X X X X X X X X X X X X X X X &.&.&.&.8 8 8 8 8 s s s 8 8 8 8 ",
"8 8 8 8 8 8 1 8 &.&.&.&.X   X X X X X X X X X X X X X X X X X X X X X X X X X X X X X X X X X X &.&.&.&.8 8 8 8 8 1 8 8 s s 8 8 ",
"8 8 8 8 8 8 8 8 8 8 8 8 &.&.&.&.&.&.&.&.&.&.&.&.&.&.&.&.&.&.&.&.&.&.&.&.&.&.&.&.&.&.&.&.&.&.&.&.8 8 8 8 8 8 8 8 8 8 8 8 8 8 8 8 ",
"8 8 8 8 8 8 t x x s 8 8 &.&.&.&.&.&.&.&.&.&.&.&.&.&.&.&.&.&.&.&.&.&.&.&.&.&.&.&.&.&.&.&.&.&.&.&.8 8 8 8 8 8 8 s x x x x x g 8 s ",
"s 8 8 v 8 8 m _  .B s s &.&.&.&.&.&.&.&.&.&.&.&.&.&.&.&.&.&.&.&.&.&.&.&.&.&.&.&.&.&.&.&.&.&.&.&.s 8 8 8 8 8 8 s / _ _ _ _ J 8 8 ",
"8 8 8 8 1 8 B _ _ m 8 8 &.&.&.&.&.&.&.&.&.&.&.&.&.&.&.&.&.&.&.&.&.&.&.&.&.&.&.&.&.&.&.&.&.&.&.&.s 8 8 8 8 8 8 s ~ _ _ ( _ @ 8 8 "
};
