/* XPM */
static const char *ZXhpdA__[] = {
/* columns rows colors chars-per-pixel */
"64 64 213 2 ",
"   c #0C0907",
".  c #120D0B",
"X  c #1C140F",
"o  c #15110E",
"O  c #180F10",
"+  c #1B1412",
"@  c #191716",
"#  c #221713",
"$  c #281A16",
"%  c #38151B",
"&  c #1E231C",
"*  c #2E2915",
"=  c #29231D",
"-  c #33231A",
";  c #342F19",
":  c #34281A",
">  c #36311A",
",  c #3A331B",
"<  c #3E391E",
"1  c #282724",
"2  c #392B21",
"3  c #2D3429",
"4  c #3C3620",
"5  c #38362D",
"6  c #3A3A37",
"7  c #413A1E",
"8  c #402D1F",
"9  c #5C1C2C",
"0  c #4A3325",
"q  c #443D22",
"w  c #4D3B26",
"e  c #483529",
"r  c #533B26",
"t  c #52352B",
"y  c #543C2A",
"u  c #573C2A",
"i  c #483B36",
"p  c #50372A",
"a  c #653B35",
"s  c #773537",
"d  c #3C4138",
"f  c #4D4429",
"g  c #4B4225",
"h  c #51442A",
"j  c #5B422C",
"k  c #574C2B",
"l  c #5C512C",
"z  c #4B443F",
"x  c #584532",
"c  c #5C5535",
"v  c #674B36",
"b  c #675A35",
"n  c #624D2F",
"m  c #6D6037",
"M  c #7C6D3D",
"N  c #74653B",
"B  c #474747",
"V  c #585859",
"C  c #4A504A",
"Z  c #654D41",
"A  c #665346",
"S  c #6D5954",
"D  c #4E6449",
"F  c #516A4D",
"G  c #5C724E",
"H  c #5B665A",
"J  c #5C7353",
"K  c #5D7659",
"L  c #696542",
"P  c #60734E",
"I  c #6F7C4E",
"U  c #647759",
"Y  c #796D4F",
"T  c #5C5F62",
"R  c #6B5A60",
"E  c #5E6064",
"W  c #6A6B6E",
"Q  c #636667",
"!  c #776A61",
"~  c #787978",
"^  c #756D75",
"/  c #82223E",
"(  c #82723F",
")  c #9F3249",
"_  c #AC3251",
"`  c #BB3255",
"'  c #A62F4B",
"]  c #DF3267",
"[  c #934459",
"{  c #935558",
"}  c #847441",
"|  c #8B7A45",
" . c #8B7B49",
".. c #966F55",
"X. c #92734C",
"o. c #925265",
"O. c #AE506A",
"+. c #86786F",
"@. c #897A78",
"#. c #AD6772",
"$. c #C94365",
"%. c #D1476A",
"&. c #F04E7F",
"*. c #CA6E7D",
"=. c #508A3E",
"-. c #4A8F3E",
";. c #6EB43F",
":. c #77BA3E",
">. c #62AF3F",
",. c #4C9A44",
"<. c #499644",
"1. c #549F4C",
"2. c #5E805B",
"3. c #6A8557",
"4. c #738C5C",
"5. c #699458",
"6. c #74925D",
"7. c #4FA544",
"8. c #4EA449",
"9. c #50A545",
"0. c #56A942",
"q. c #5BAA43",
"w. c #52A549",
"e. c #59A747",
"r. c #5BAA52",
"t. c #63AD43",
"y. c #6BAF42",
"u. c #65B143",
"i. c #6DB342",
"p. c #72B641",
"a. c #7CBB41",
"s. c #77BA46",
"d. c #65A95C",
"f. c #7DBA53",
"g. c #6F8B6D",
"h. c #718A6B",
"j. c #6C9C64",
"k. c #679362",
"l. c #71976C",
"z. c #738572",
"x. c #6CA566",
"c. c #6AAB62",
"v. c #6AA864",
"b. c #75A372",
"n. c #83B33F",
"m. c #8BC33E",
"M. c #85C23F",
"N. c #93C63E",
"B. c #94C83E",
"V. c #80935B",
"C. c #82BF40",
"Z. c #90AC48",
"A. c #87827E",
"S. c #83B860",
"D. c #8BC340",
"F. c #85C141",
"G. c #92C640",
"H. c #95C940",
"J. c #97C848",
"K. c #7C7C81",
"L. c #ED5A87",
"P. c #D66C8F",
"I. c #F5628A",
"U. c #E5779A",
"Y. c #F27397",
"T. c #7E8186",
"R. c #86878A",
"E. c #95888D",
"W. c #8B8D91",
"Q. c #8F9298",
"!. c #9B9A9B",
"~. c #B78D88",
"^. c #9C9DA3",
"/. c #BD9EAE",
"(. c #A7A8AA",
"). c #ABADB4",
"_. c #B8B9BC",
"`. c #BAA9B3",
"'. c #C09E9C",
"]. c #EC8B9F",
"[. c #C897AB",
"{. c #D19AAE",
"}. c #E986A4",
"|. c #E695AE",
" X c #CAA6AA",
".X c #DDA6B9",
"XX c #C7B4BC",
"oX c #D1B2BA",
"OX c #E5B4B7",
"+X c #B8BAC4",
"@X c #CDB8C9",
"#X c #D6B8C5",
"$X c #D6AFC2",
"%X c #E1B9C3",
"&X c #E3B4CD",
"*X c #BAC2CE",
"=X c #BEC6D1",
"-X c #C4C3C5",
";X c #CAC9CD",
":X c #D8C1C8",
">X c #C6C9D4",
",X c #D8C8D6",
"<X c #CBD2DB",
"1X c #D8D2D7",
"2X c #E1C4D7",
"3X c #E3C8D2",
"4X c #C8D3E2",
"5X c #D5D6E4",
"6X c #D4DAE5",
"7X c #D8DBEA",
"8X c #DAE1ED",
"9X c #D7E0EF",
"0X c #DBE3F3",
/* pixels */
"7.7.7.7.7.7.7.7.7.7.9.7.<.<.,.7.7.7.7.7.7.7.7.7.7.7.7.7.7.7.7.7.7.7.7.7.7.7.9.7.7.7.7.7.7.7.7.7.7.7.i.H.H.q.7.7.7.7.9.9.7.7.7.7.",
"7.7.7.7.7.7.7.7.7.7.7.7.<.<.<.7.7.9.9.9.9.9.7.7.7.7.7.7.7.7.7.7.7.7.7.7.7.7.7.7.7.7.7.7.7.7.7.7.7.7.i.B.B.q.7.7.9.7.7.9.7.7.7.7.",
"7.7.7.7.7.7.7.7.7.7.7.7.7.7.7.7.7.7.7.7.7.7.7.7.7.7.7.7.7.7.7.7.9.7.7.7.7.7.7.7.7.7.7.7.7.7.7.7.7.7.0.t.t.9.7.7.7.7.7.7.7.7.7.7.",
"7.7.7.7.7.7.7.7.7.7.7.7.7.7.7.7.7.7.7.7.7.7.7.7.7.7.7.7.7.7.7.7.7.7.7.9.7.7.7.7.7.7.7.7.7.7.7.7.7.7.7.9.7.9.7.7.7.7.7.9.7.7.7.7.",
"7.7.7.7.7.7.7.7.7.7.7.7.7.7.7.7.7.9.7.7.7.7.7.7.7.7.7.7.7.7.7.7.7.7.7.7.7.7.7.7.7.7.7.7.7.7.7.7.7.7.7.7.7.7.7.7.7.7.7.7.7.7.7.7.",
"7.7.7.7.7.7.7.7.7.7.7.9.7.7.7.7.7.7.7.9.s.F.M.9.7.7.7.7.7.7.7.7.7.7.7.7.7.7.7.7.7.7.7.7.7.7.7.7.7.7.7.7.7.9.7.7.7.7.7.7.9.7.7.7.",
"7.7.7.7.7.7.7.7.7.7.7.7.7.7.7.7.7.7.7.7.C.H.B.9.7.7.7.7.7.7.7.7.7.7.7.7.7.7.7.7.7.7.7.7.7.7.7.7.7.7.7.7.7.7.7.7.7.7.7.7.7.7.7.7.",
"7.7.7.7.7.7.7.7.7.7.9.7.7.7.7.7.7.7.7.7.F.B.H.9.7.7.7.7.7.7.7.7.7.7.7.7.9.7.7.7.7.7.7.7.7.7.7.7.7.7.9.7.7.7.7.7.7.7.7.7.7.7.7.7.",
"7.7.7.7.7.7.7.7.7.7.7.7.7.7.7.7.7.7.7.7.7.9.9.7.7.7.7.7.7.7.7.7.7.9.7.7.7.7.7.7.7.7.7.7.7.7.7.9.7.7.7.7.7.7.7.7.7.7.7.7.7.7.7.7.",
"7.7.7.7.7.7.7.7.7.7.7.7.7.7.7.7.7.7.7.7.7.7.9.7.7.7.7.7.7.7.7.7.7.7.7.7.7.7.9.7.7.7.7.7.7.7.7.7.7.7.7.7.7.7.7.7.7.7.7.7.7.7.7.7.",
"7.7.7.7.7.7.7.7.7.7.7.7.7.7.7.7.9.7.7.7.7.7.7.7.7.7.7.7.7.7.7.7.9.7.7.7.9.7.9.7.9.9.7.7.7.9.9.7.7.7.7.7.7.7.7.7.7.7.7.7.7.7.7.7.",
"7.7.7.7.7.7.7.7.7.7.7.7.7.7.7.7.7.9.9.7.7.7.7.7.7.7.7.7.7.7.7.7.7.7.7.7.9.N.N.s.7.7.7.9.7.7.9.9.7.7.7.7.7.7.7.7.7.7.7.7.7.7.7.7.",
"7.7.7.7.7.7.7.7.7.7.7.9.7.7.7.7.7.7.9.7.7.7.7.7.7.7.7.7.7.7.7.7.7.7.7.7.w.N.B.a.7.7.7.7.7.7.9.7.7.7.7.7.7.7.7.7.7.7.7.7.7.7.7.7.",
"7.7.7.7.7.7.7.7.7.7.7.7.9.7.7.7.9.9.9.7.9.w.7.7.7.7.7.7.7.7.7.7.9.7.7.7.w.B.H.a.9.7.7.7.7.7.7.7.7.7.7.7.7.7.7.7.7.7.7.7.7.7.7.7.",
"7.7.7.7.7.7.7.7.7.7.7.7.7.7.9.7.7.7.7.7.7.9.7.7.7.7.7.7.7.7.7.7.7.7.7.7.7.7.7.;.B.B.q.7.7.9.7.7.7.7.7.7.7.7.7.7.7.7.7.7.7.7.7.7.",
"7.7.7.7.7.7.7.7.9.7.7.7.7.7.9.7.7.7.7.7.7.7.7.7.7.7.7.7.7.7.7.7.7.7.7.7.9.9.9.u.H.H.t.7.7.7.7.7.7.7.7.7.7.7.7.7.7.7.7.7.7.7.7.7.",
"7.7.7.7.7.7.7.7.7.7.7.8.7.7.7.7.7.7.7.7.7.7.7.7.7.7.7.7.7.7.7.7.9.7.7.k.F 9.9.i.B.H.t.9.7.7.7.7.7.7.7.7.7.7.7.7.7.7.7.7.7.7.8.7.",
"7.7.7.7.7.7.7.7.7.a.B.B.7.7.7.7.7.7.7.7.7.7.7.9.7.9.7.7.7.9.U K ^.U J XX<Xj.7.x.F j.9.9.7.7.7.7.7.7.7.7.7.7.7.7.7.7.7.7.7.7.7.7.",
"7.7.7.7.7.7.7.7.7.a.B.N.7.7.7.7.7.7.7.7.7.7.7.7.7.7.7.2.j.x.V W.OX4XQ.{ XXQ K ).6XQ.r.9.7.7.7.7.7.7.7.7.7.7.7.7.7.7.7.7.9.7.7.7.",
"7.7.7.7.7.7.7.7.7.a.H.B.9.7.7.7.7.7.7.7.7.7.7.7.7.9.h.|.^.K W.W R `.V 0 L.E.  +.I.<X@ 7.7.7.7.7.9.7.7.7.7.7.7.7.9.7.9.7.7.9.7.7.",
"7.7.7.7.7.7.7.7.7.7.9.7.7.7.7.7.7.7.7.7.7.7.7.7.v.T.K..X9 : '.o.@ i i &XW z -  X].*.7XD 7.7.7.7.<.<.,.7.7.7.7.7.B.H.D.9.9.7.7.7.",
"7.7.7.7.7.7.7.7.9.7.7.7.7.7.7.7.7.7.7.7.7.7.7.w.z.5X}.u ~.X A.#.[ ~.e @.~ y - ^ 6Xz.k.7.7.7.9.7.,.<.,.7.7.7.7.7.N.B.D.7.7.7.9.7.",
"7.7.7.7.7.7.7.7.7.7.9.7.9.7.7.7.7.7.7.9.7.7.7.w.z.R.o./ C 2 W v # $ W.z X.S W _.R.z.j.7.9.7.7.7.,.<.,.9.7.7.7.7.D.G.M.7.7.9.7.7.",
"7.7.7.7.7.7.7.7.7.7.7.7.9.g.E l.T x.x.T T Q d.7.7.8.h.E W.0X%XL.j . ) p p ,X_ $X8XV 9XE l.7.7.7.7.7.7.9.7.7.7.7.7.7.7.7.7.7.9.7.",
"7.7.7.7.7.7.7.7.7.7.9.g.V U.2X:X5XK.+X+XE.{.5 x.g.V 5X^.O.0 i Q C 8 ! +X.X&X}.|.7X%XI.4X1 r.x.V l.7.9.7.9.7.9.7.7.7.7.7.7.7.7.7.",
"7.7.7.7.7.7.7.7.7.7.7.x.^.}.[.6X*X>X@ !.6 v 0 o {..X%X8Xt ! a @X' ! 4XV e  X}.(.P.).$.U.0X6 1X1X~ V d.7.7.7.7.7.7.7.7.7.7.7.7.7.",
"7.7.7.7.7.7.7.7.7.9.7.7.F ).7X<X#Xx = # - X @.6XB y t B W ).+ p p E.`.s w #.%XXX2 ~.1X$X,X:X$.].2X= 9.9.7.7.7.7.7.7.7.7.7.7.7.7.",
"7.7.9.7.7.7.7.7.7.7.7.9.7.9.F @ _ +.1X#X-XS 0 5XL.S ^ 8XZ + 0   r v y 6   A._.v i 5XC Y # 8XP.}.H w.7.7.7.7.7.7.7.7.7.7.7.7.7.7.",
"7.7.7.7.7.7.9.7.7.7.7.7.7.7.D !.-X,X%Xa /.}.S % 0 +XR.4XOXY.i $ j i -X5X>X5 . ~ >X^ ` =X}.#X+X*Xc.7.7.7.7.9.7.7.7.7.7.7.7.7.7.7.",
"7.7.7.7.7.7.7.7.7.7.9.7.7.7.7.H 8X$.XXB V S I.t x 8 Z -XO.).-XZ A >XU.,X:Xx r u +XY.u   o $ ` :XC 7.9.7.7.7.9.7.7.7.7.7.7.7.7.7.",
"7.7.7.7.7.7.7.7.7.7.7.7.7.7.7.9.d Y.$X_.5 >X@.U.P.+ >Xx e = 0 y   i i 5X6X+.X A.e O 1 @.6X. c.6 v.7.7.7.7.7.7.7.7.7.7.7.7.7.7.7.",
"7.;.p.i.7.7.7.7.9.7.7.7.7.7.w.p.s.5 S.s.p.f.W.;X5X$ 0 0 w = w j   (.;Xi = n + ~ ..+X.X(.3 r.7.8.7.7.7.7.7.7.7.7.7.7.7.7.7.7.7.7.",
"7.N.N.N.8.7.7.7.7.7.9.7.7.7.9.N.N.a.7.7.C.H.J.c.3 a : o t r u X 0 j 1 @ ..Q @ k. X>X,X<XC 9.7.7.7.7.7.7.7.7.7.7.7.7.7.7.7.7.7.7.",
"7.N.B.N.7.7.7.7.7.7.7.7.7.7.9.H.B.a.7.7.n.B.H.3 {.] [ . $ r r r y j.1.W.|.%.).j.d.b.z c.1.7.7.9.7.7.7.7.7.7.7.7.7.7.7.7.7.7.7.7.",
"7.u.u.t.7.9.9.7.7.7.7.7.7.7.7.u.t.;.a.a.i.u.u.e.~ ,X5 c.# r r j d e.9.U d 7X& 7.9.7.7.9.7.7.7.9.a.a.y.7.7.7.7.9.7.7.7.7.7.7.7.7.",
"9.7.7.9.7.7.7.7.7.7.7.7.7.7.7.7.9.u.B.B.t.7.7.7.r.d.7.9.$ 0 y $ d.7.7.7.w.d.7.7.7.7.7.9.7.7.7.0.B.B.:.7.7.7.7.7.7.7.7.7.7.7.7.7.",
"9.7.9.7.7.7.7.7.7.7.7.7.7.7.7.7.7.u.B.B.t.7.7.7.7.7.9.7.x.0 j + 7.7.7.7.7.7.7.7.7.7.7.7.7.7.7.0.B.B.s.7.7.9.7.7.7.7.7.7.7.7.7.7.",
"9.7.9.7.7.7.7.7.7.7.7.7.7.7.7.7.7.w.u.>.0.7.7.7.7.7.7.7.x.0 r X 7.7.7.7.7.<.,.,.7.7.7.7.7.:.a.a.u.t.p.:.a.0.7.9.7.7.7.7.7.7.7.7.",
"7.7.7.7.7.9.7.7.7.7.7.9.9.7.7.7.7.9.9.w.9.7.7.7.7.7.7.7.x.0 j X 7.7.7.7.7.,.<.,.7.7.7.7.7.m.N.F.w.9.i.N.G.0.7.7.7.7.7.7.7.7.7.7.",
"7.7.7.7.7.9.7.7.7.7.9.7.7.7.7.7.7.9.7.7.7.7.7.7.7.7.7.9.x.0 j X 7.7.7.7.7.,.,.,.7.7.7.7.7.N.H.D.9.7.i.B.B.0.7.7.7.7.7.7.7.7.7.7.",
"7.7.7.7.7.7.7.7.7.7.7.7.7.7.7.7.7.7.7.7.7.7.7.7.7.7.7.7.x.0 j X 7.7.7.7.7.,.<.,.9.7.7.7.7.F.m.M.q.q.i.m.F.0.7.7.7.7.7.7.7.7.7.7.",
"7.7.7.7.7.7.7.7.7.7.9.7.7.7.7.7.7.7.7.7.7.7.7.7.7.7.7.7.x.0 y X 7.7.7.7.7.9.7.7.7.9.7.7.7.0.0.q.D.m.p.w.e.9.7.7.7.7.7.7.7.7.7.7.",
"7.7.7.7.7.7.7.7.7.7.7.7.7.7.7.9.7.7.9.7.7.9.7.7.7.7.7.9.# 0 y X 7.7.7.9.7.7.9.7.7.7.7.7.7.7.7.0.B.B.:.7.9.9.7.7.7.7.7.7.7.7.7.7.",
"7.7.7.7.7.7.7.7.7.9.7.w.w.=.4.6.=.4.L c 5.4.4.4.=.6.3.3.2 r h 4 6.=.4.4.=.5.=.=.4.3.3.b k L 4.4.Z.n.V.k I 6.7.7.7.7.7.7.7.7.7.7.",
"7.7.7.7.7.7.7.7.7.7.,.d.5.h M N f | b b k } } ( h | Y b b f }  . .f } | g m h , | N m | n | } } b k } k M  .7.7.7.7.7.7.7.7.7.7.",
"7.7.7.7.7.7.7.7.7.7.f m m l , , q > q m k > > , b , q q q > > N l l > q > ; l M , 4 w l  .* > , k l ; g g 4 7.7.7.7.7.7.7.7.7.7.",
"7.7.7.7.7.7.7.7.7.7.< , M b q 7 < , < q q 7 7 q q , 7 q q q 7 > q q q , q q q 7 q 7 , q > q q q 7 q q 7 4 g 7.7.7.7.7.7.7.7.7.7.",
"7.7.7.7.7.9.9.7.7.7.; > 7 ; , > ; > ; , > > , * < , > , * , > , > , ; , ; < > < , > * , , > , 7 * ; , , ; 4 9.9.7.7.7.7.7.7.7.7.",
"7.7.7.7.7.7.7.7.7.7.P G G P G G G G G G G G G G G G G G P I I P G G G G G G G G G G G G G G G G G G G P J J 7.7.7.7.7.7.7.7.7.7.",
"7.7.7.7.7.7.7.7.9.9.9.9.7.7.7.9.7.7.7.7.7.7.7.7.7.7.7.7.u.N.B.q.7.7.7.7.7.7.7.7.7.7.7.7.7.7.7.7.7.7.7.7.7.7.7.7.7.7.7.7.7.7.7.7.",
"7.<.<.<.7.7.7.9.7.9.7.7.N.B.N.7.7.7.7.7.7.7.7.7.7.7.7.9.7.7.7.8.7.7.7.7.7.7.7.7.7.7.7.7.7.7.7.7.7.7.i.B.B.N.N.B.7.7.7.7.7.7.7.7.",
"7.<.<.,.7.7.7.9.7.7.7.7.N.N.G.7.7.7.7.7.7.7.7.7.7.7.7.7.7.7.7.7.7.7.7.7.7.7.7.7.7.7.7.7.7.7.7.7.7.7.;.B.B.B.B.B.7.7.7.7.7.7.7.7.",
"7.,.<.-.7.9.7.7.7.7.7.7.B.H.G.7.7.7.7.7.7.7.7.7.7.7.7.7.7.7.7.7.7.7.7.7.7.7.7.7.7.7.7.7.7.7.7.7.7.7.i.H.H.H.H.B.7.7.7.7.7.7.7.7.",
"7.7.7.7.7.w.7.7.7.7.7.7.7.7.w.7.7.7.7.7.7.7.7.7.7.7.,.<.,.7.7.7.7.7.7.7.7.7.7.7.7.7.7.7.7.7.7.7.7.7.9.7.7.7.7.9.7.7.7.7.7.7.7.7.",
"7.7.7.9.7.7.7.7.7.7.7.7.7.9.7.9.7.7.7.7.7.7.7.7.7.7.<.<.,.9.9.7.7.7.7.7.7.7.7.7.7.7.7.7.7.7.7.7.7.7.7.7.7.9.7.7.7.7.7.7.7.7.7.7.",
"w.7.7.7.7.9.7.7.7.7.7.7.7.7.7.9.7.7.7.7.7.7.7.7.7.7.,.,.,.7.7.7.7.7.7.7.7.7.7.7.7.7.7.7.7.7.7.7.7.7.7.7.9.7.7.7.7.7.7.7.7.7.7.7.",
"7.7.7.7.7.7.7.7.7.9.7.7.7.7.7.7.7.9.7.9.7.7.9.7.7.7.7.7.9.7.7.7.7.7.7.7.7.7.7.7.7.7.7.7.7.7.7.7.7.7.7.7.7.7.7.7.7.7.7.9.7.7.7.7.",
"7.7.7.7.7.7.7.7.7.7.7.7.7.9.7.7.7.7.7.7.7.7.7.7.7.7.7.7.7.7.7.7.7.9.7.7.9.9.7.7.7.7.7.7.7.7.7.7.7.7.7.7.7.7.7.7.7.7.7.7.7.7.7.7.",
"7.7.7.9.7.7.7.7.7.7.7.7.7.7.7.7.7.7.7.7.7.7.7.7.7.7.7.7.7.7.7.9.7.9.7.7.7.7.7.7.7.9.7.7.7.7.7.9.7.7.7.7.7.7.7.7.7.9.9.9.7.9.7.7.",
"7.7.7.7.7.7.7.7.7.7.7.9.7.7.7.9.7.7.9.7.7.7.7.7.7.7.7.7.7.7.7.7.7.7.7.7.7.7.7.7.7.7.7.7.7.7.7.7.7.7.7.7.7.7.7.7.7.7.7.7.9.w.7.9.",
"7.9.7.7.7.7.7.7.7.7.7.7.7.7.7.7.7.7.7.7.7.7.7.7.7.7.7.7.7.7.7.7.7.7.7.7.7.7.7.7.7.7.7.7.7.7.7.7.7.7.7.7.7.7.7.7.7.7.7.7.7.7.7.7.",
"7.7.7.7.7.7.9.q.q.9.7.7.7.7.7.7.7.7.9.7.0.q.q.7.7.9.9.7.9.q.q.q.q.q.7.7.7.7.7.7.7.7.7.7.7.q.q.q.9.7.7.7.7.7.7.9.q.q.q.q.q.0.7.9.",
"9.7.7.w.7.7.t.B.B.t.9.9.7.7.7.7.7.7.9.7.C.H.B.9.7.9.7.7.u.H.B.B.B.B.7.7.7.9.7.7.7.7.7.7.7.B.B.F.9.7.7.7.7.7.7.9.N.H.H.B.B.s.7.7.",
"7.7.7.7.7.7.t.B.H.t.7.7.7.7.7.7.9.7.7.7.C.H.H.9.7.9.7.7.u.B.B.B.B.B.7.7.7.7.7.7.7.7.7.7.7.N.B.m.9.7.7.7.7.7.7.9.N.B.B.B.B.:.7.7."
};
