/* XPM */
static const char *Z3JvdW5k[] = {
/* columns rows colors chars-per-pixel */
"64 64 184 2 ",
"   c #71B63F",
".  c #75B63E",
"X  c #74B83D",
"o  c #74B83F",
"O  c #4A9745",
"+  c #4B9943",
"@  c #4B9B42",
"#  c #4A9A43",
"$  c #4A9D41",
"%  c #4C9C43",
"&  c #4A9844",
"*  c #4B9945",
"=  c #4B9B44",
"-  c #4A9A45",
";  c #4B9B46",
":  c #4D9845",
">  c #4C9A44",
",  c #4C9A46",
"<  c #4B9E44",
"1  c #4D9D44",
"2  c #4C9F45",
"3  c #4E9E45",
"4  c #4C9C47",
"5  c #4C9F47",
"6  c #4E9E47",
"7  c #4EA443",
"8  c #4DA044",
"9  c #4EA145",
"0  c #4EA244",
"q  c #4EA345",
"w  c #4FA345",
"e  c #4DA046",
"r  c #4EA147",
"t  c #4FA246",
"y  c #4EA346",
"u  c #4DA445",
"i  c #4EA544",
"p  c #4FA544",
"a  c #4DA446",
"s  c #4FA446",
"d  c #4EA546",
"f  c #4FA447",
"g  c #4EA547",
"h  c #4CA646",
"j  c #4FA647",
"k  c #4FA248",
"l  c #4EA348",
"z  c #50A442",
"x  c #50A643",
"c  c #52A742",
"v  c #55A743",
"b  c #51A246",
"n  c #50A347",
"m  c #50A444",
"M  c #51A545",
"N  c #50A645",
"B  c #53A745",
"V  c #50A446",
"C  c #50A547",
"Z  c #51A547",
"A  c #52A646",
"S  c #53A747",
"D  c #54A644",
"F  c #57A744",
"G  c #56A645",
"H  c #55A647",
"J  c #54A942",
"K  c #57A842",
"L  c #56A844",
"P  c #57A945",
"I  c #56A846",
"U  c #59AA41",
"Y  c #58A943",
"T  c #59AA43",
"R  c #5CAB42",
"E  c #5EAB43",
"W  c #5DAC43",
"Q  c #5FAC42",
"!  c #58A845",
"~  c #59AA44",
"^  c #5AAB44",
"/  c #5CAA44",
"(  c #5DAA44",
")  c #5CAA45",
"_  c #5DAB45",
"`  c #5BAC45",
"'  c #5FAC44",
"]  c #5EAD44",
"[  c #50A548",
"{  c #57A748",
"}  c #60AB42",
"|  c #61AC43",
" . c #63AF43",
".. c #65AE42",
"X. c #65AE43",
"o. c #66AF43",
"O. c #65AE45",
"+. c #6AAF42",
"@. c #64B043",
"#. c #67B142",
"$. c #65B242",
"%. c #67B044",
"&. c #69B141",
"*. c #6AB340",
"=. c #68B042",
"-. c #69B143",
";. c #6CB240",
":. c #6DB341",
">. c #6FB342",
",. c #6EB440",
"<. c #6DB641",
"1. c #6EB442",
"2. c #6FB543",
"3. c #69B145",
"4. c #71B440",
"5. c #70B540",
"6. c #70B541",
"7. c #73B740",
"8. c #70B443",
"9. c #70B642",
"0. c #71B642",
"q. c #76B741",
"w. c #74B841",
"e. c #77B840",
"r. c #75B942",
"t. c #77B842",
"y. c #79BB40",
"u. c #7BBB40",
"i. c #7BBB41",
"p. c #78B943",
"a. c #79BA42",
"s. c #7DBB40",
"d. c #7ABC41",
"f. c #7FBD40",
"g. c #7EBC41",
"h. c #7DBD42",
"j. c #7FBD42",
"k. c #79BA44",
"l. c #81BE3F",
"z. c #82BF3E",
"x. c #87C33F",
"c. c #8BC33E",
"v. c #8BC43F",
"b. c #8EC63D",
"n. c #8DC53E",
"m. c #8CC43F",
"M. c #91C53D",
"N. c #90C63D",
"B. c #90C53F",
"V. c #92C63E",
"C. c #93C73E",
"Z. c #93C73F",
"A. c #94C73C",
"S. c #94C73E",
"D. c #94C63F",
"F. c #96C63F",
"G. c #97C73F",
"H. c #93C83C",
"J. c #92C83E",
"K. c #92C83F",
"L. c #93C93F",
"P. c #95C83D",
"I. c #94C93D",
"U. c #94C83F",
"Y. c #95C83F",
"T. c #95CA3E",
"R. c #81BD41",
"E. c #82BF40",
"W. c #82C041",
"Q. c #83C041",
"!. c #85C040",
"~. c #84C140",
"^. c #86C140",
"/. c #8BC240",
"(. c #8DC540",
"). c #8EC641",
"_. c #8DC442",
"`. c #90C541",
"'. c #95C740",
"]. c #93C940",
"[. c #94C840",
"{. c #95C940",
"}. c #95C941",
"|. c #94C842",
/* pixels */
"s s s s s s s s q V s s 2 < 2 s s s s s V s s s s s s s s s s s s s 2 2 2 V n s s s s s s s s s s q } . e.I s s s s q 2 2 q q s ",
"s s s s s s s s s s s q * * > s s s s s s s s s s s s s s s s s q s q s q V s s s s s s s s s s s s <.'.{.^ s s s s V s s q q s ",
"s s s s s s s s s s s q * * * s q V V s V s s s s s s s s s s s s s s s s s s s s s s s s s s s V s <.U.U.^ s s s s s V s q s s ",
"s s s s s s s s s s s s q q q s s s s s s s s s s s s s s s s s s s s s s s s s s s s s s s s s s s I O.o.V s s s s s q s s s s ",
"s s s s s s s s s s s s s s s s s s s s s q s s s s s s s s s s s s s s s s s s s s s s s s s s s s s V s V s s s s s s s s s s ",
"s s s s s s s s s s s s s s s s s V s s s s s s s s s s s s s s s s q s q s s s s s s s s s s s s s s s s s s s s s s s s s s s ",
"s s s s s s s s s s s s s s s s s s s s p.^.^.V s s s s s s s s s s s s s s s s s s s s s s s s s s s s s s s s s s s s s s s s ",
"s s s s s s s s s s s s s s s s s s V s E.L.U.V s s s s s s s s s s s s s s s s s s s s s s s s s s s s s s s s s s s s q s q s ",
"s s s s s s s s s s s s s s s s s s s s W.U.{.V s s s s s s s s s s s s s s s s s s s s s s s s s s s s s s s s s s s s s s s s ",
"s s s s s s s s s s s s s s s s s s s s V V V s s s s s s s s s s V s s s s s s s s s s s s s V s s s s s s s s s s s s s s s s ",
"s s s s s s s s s s s s s s s s s s s s s s V s s s s s s s s s s s s s s s V s s s s s q s s q s s s s s s s s s s s s s s s s ",
"s s s s s s s s s s s s s s s s V s s s s s s s s s s s s s s s V s s q V s s q V s s s s s s s s s s s s s s s s s s s s s s s ",
"s s s s s s s s s s s s s s s s s V V s s s s s s s s s s s s s s s s s V G.G.k.q s V V s s V s s s s s s s s s s s s s s s s s ",
"s s s s s s s s s s s s s s s s s s s s s s s s s s s s s s s s s s s n D G.L.p.s s s s s s s s s s s s s s s s s s s s s s s s ",
"s s s s s s s s s s s s s s s s s V s s s V s s s s s s s s s s s s s s D C.U.p.V q s s s s s s s s s s s s s s s s s s s s s s ",
"s s s s s s s s s s s s s s s s s s q s s s s s s s s s s s s s s s s s 7 s s -.U.U.W s s V s V s s s s s s s s s s s s s s s s ",
"s s s s s s s s s s s s q s s s s s s s s s s s s s s s s s s s s s s s V V s -.{.U.W s s s s s s s s q s s s s s s s s s s s V ",
"s s s s s s s s s s s s s s s s s s s s s s s s s s s s s s s s s s s s V s s >.U.{.W s s s s s s s s s s s s s s s s s s s s q ",
"s s s s s s s s q j.L.U.V s s s s s s s s s s s s s s s s s s s s s s s s q s q q q s s s s s s s s s s s s s s s s s s s s s s ",
"s s s s s s s s q j.U.C.V s s s s s s s s s s s s s s s s s s s s s s s s s s s s s s s q s s s s s s s s s s s s s s s V s s s ",
"s s s s s s s s q j.{.L.V s s s s s s s s s s s s s s s s s s s s s s s s s s s s s s s s s s s s q q s q q q q V s V s s s s s ",
"s s s s s s s s s s s s s s s s s s s s s s s s s s s s s s s s s s s s s s s s s s s s s s s q * * < s s s s q U.{.).V V s s s ",
"s s s s s s s s V s s s s s s s s s s s s s s s s s s s s s s s V V s V s s s s s q V s s s s q * * < s s s s q C.U.).s s s s s ",
"s s s s s s s s s s s s V s s s s s s s s s s s s s s s s s s s V s s s s s s s s s s s V s s q @ * < s s s q s ).C.x.s s s s s ",
"s s s s s s s s s s s s s s s s s s s s s s s s s s s s s s s s V V s s s s s s s s s s s s s s s s s s s s s s s s s s s s s s ",
"s s s s s s s s s s s s s s s s s V s s s s s s s s s s s s s s s s s s V s s s s s s s s s s s s s s s s s s s s s s s s s s s ",
"s s s s s s s s s s s s s s s s s s s s s s s s s s s s s s s s q s ) Y E s s s s s s s s s s s s s s s s s s s s s s s s s s s ",
"s s s s s s s s s s s s s s s s V V s s s s s s s s s s s s s s s s C.U.m.q s s s s s s s s s s s s s s s s s s s s s s s s s s ",
"s s s s s s s s s s s s s s s s s s V s s s s s s s s s s s s s s q C.U.m.s s V s s s s s s s s s s s s s s s s s s s s s s s s ",
"s s s s s s s s s s s s s s s s s I @.| v V s V s s s s s s s s V s p.j.p.s s s s s s s s s s s s s s s s s s s s s s s s s s s ",
"s s s s s s s s s s s s s s s s s @.G.U.| s s s s s s s s s s s s s V q V s s s s s s s s s s s s s s s s s s s s s s s s s s s ",
"s s s s s s s s s s s s s s s s s -.U.U.} s s s s s s s s s s s s q s s s s s s s s s s s s s s s s s s s s s s s s s s s s s s ",
"s <.4.>.s s s s s s s s s s V 4.4.  4.4.4.4.4.V s s s s s s s s s V s s s q s s [ s s s s s s s s s s s s s s q s s s s s s s s ",
"s C.C.C.l s s s s s V s s s V G.C.s.s s E.{.G.V s s s s s s s s s s s s s s s s s s s s s V s s s s q s s s s s s s s s s s s s ",
"s C.U.C.s q s s q s s q s q V G.U.p.s s l.U.U.V s s s s s s s s s s s s s s s s s s s s s s s s s s q s s s q s s s s s s s s s ",
"s @.@.o.s V s s s s s s s s V @.o.<.d.p.>.-.@.s s s s s s s s s s s s s s s s s V s s s s s s D d.p.+.s s s s s s s s s s s s s ",
"s s s s s s s s s s s s s s s s s 3.U.U.} s s s s s s s s s s s s s s s s s s s s q s s s s s D U.U.X s s s s s s s s s s s s s ",
"V s s s s s s s s s s s q s s s s %.U.U.| s s s s s s s s s s s s s s s V s s s s s s s V s s J U.U.e.s s c s s s s s s s s s s ",
"V s s s s s s s s s s s s s s s s D ` W D s s s s s s s s s s s s s s s q @ > 2 s V s s s l.^.E.' ' 4.^.^.^ s V s s s s s s s s ",
"s s s s s V s s s s s s s s s s s s s [ s s s s s s s s s s s s s s s s q @ * $ s s s s s G.U./.V s <.U.U.^ s q s s s s s s s s ",
"s s s s s s s s s s s s s s s s s s s s s s s s s s s s s s s s s s s s n * O 2 s s s s s C.U.v.V q <.U.U.Y s s s s s s s s s s ",
"s s s s s s s s s s s s s s s s s s s s s s s s s s s s s s s s s s s s q n q q s s q s s v I E ).m.4.D { V s s s s s s s s s s ",
"s s s s s s s s s s s s s s s s s s s s s s s s s s s s s s s s s s s V q s s s s s s s s s s J L.U.X s s V s s s s s s s s s s ",
"s s s s s s s s s s s s s s s s s s s s s s s s s s s s s s s [ q s s s s s s s s V V s s s s D G.C.q.s V s s s s s s s s s s s ",
"s s s s s s s s s s s s s s s s s s s s s s s s s s s s s s s s s s s s s s V s s s s s s s V s V c V s s s s s s s s s s s s s ",
"s s s s s s s s s s s s s s s s s s s s s s s s V s s s s s s s s q q s s s s s s s s s V s s q s s s s s s s s s s s s s s s s ",
"s s s s s s s s s s s s s s s s s s s s s s s s s s s s s s s s s s s s s s s s s s s s s s s s s s s V s q s s s s s s s s s s ",
"s s s s s s s s s s s s s s s s s s s s s s s s s s V s o.U.C.) s s s s s s V s s s s s s s s s V s s s s s V V s s s s s s s s ",
"s s s s s s s s s s s q s V V V s s s s s s s s s s q s @.U.U.E s s s s s s s s s s s s s s s s s s s V s s s s s s s s s s s s ",
"s q q s s s s s V V s s s s s V s s s s s s s s s q s q @.C.U.E s s s s s s s s s s s s s s s s s s s s s s s s s s s s s s s s ",
"s * * * s s s s s V s s L.U.C.q s s s s s s s s s s s s q s s l s s s s s s s s s s s s s s s s s s <.U.L.G.C.U.s s s s s s s s ",
"s * * * s s s V s s s s C.C.`.s s s s s s s s s s s s s s s s s s s s s s s s s s s s s s s s s s s <.U.U.U.U.U.s s s s s s s s ",
"s @ * @ s V s s s s s q L.{.).s s s s s s s s s s s q q s s s s s s s s s s s s s s s s s s s s s s <.{.{.{.].'.s s s s s s s s ",
"s q s q s V s s s s s s q q s q s s s s s s s s q q > * 2 s s s s s s s s s s s s s s s s s s s s s V s n n n V s s s s s s s s ",
"s s s V s s s s s s s s s s s s s s s s s s s s s q * * % s s s s s s s s s s s s s s s s s s s s s s s s s s s s s s s s s s s ",
"V s q s s s s s s s s s s s s s s s s s s s s s s q > * % s s s s s s s s s s s s s s s s s s s s q s s V s s s s s s s s s s s ",
"s s s s s s s s s V s s s s s s s V s s s s V s s s q s s s s s s s s s s s s s s s s s s s s s s s s s s s s s s s s s s s s s ",
"s s s s s s s s s s s s s V q s s s s s s s s s s s s s s s s s s V s s V s s s s s s s s s s s s s s s s s s s s s s s s s s s ",
"s q s V s s s s s s s s s s s s s s s s s s s s s s s s s s s V s s s s s s s s s s s s q s s V s s s s s s s s s V V V s s s s ",
"s s s s s s s s s s s s s s s V s s V s q s s s s s s s s s s s s s s s s s s s s V s s s s s s s s s s s s s s s q s s V V s V ",
"s s s s s s s s s s s s s s s s s s s s s s s s s s s s s s s s s s s s s s s s s s s s s s s s s s s s s s s s s s s s s s s s ",
"s s s s s s c ) ) V s s s s s s s s V s Y ^ ^ s s V V q V ) ) ) ) ) s s s q s s s s s s s ^ ) ) s s s s s s s V ) ) ) ) ) I s V ",
"V s s [ s s | U.U.o.V V s s s s s s V s W.U.U.V q s s s @.U.U.U.U.U.q s s V s s s s q s s U.U./.V s s s s s s V G.U.U.U.U.e.s s ",
"s s s s q s o.U.U.| s s s s s s V s s s E.].U.V s V n s @.U.U.U.U.U.s s s q s s s s s q s C.U.c.V s s s s s s V C.U.U.U.U.e.q s "
};
