/* XPM */
static const char *d2hpdGU_[] = {
/* columns rows colors chars-per-pixel */
"64 64 140 2 ",
"   c #2F3237",
".  c #2F3438",
"X  c #303437",
"o  c #313439",
"O  c #353A3E",
"+  c #363B41",
"@  c #393E44",
"#  c #3B3F48",
"$  c #3B4146",
"%  c #3C444B",
"&  c #3F484F",
"*  c #41474E",
"=  c #41494E",
"-  c #424C53",
";  c #454F58",
":  c #455056",
">  c #495256",
",  c #47525A",
"<  c #4A555C",
"1  c #4D595F",
"2  c #515659",
"3  c #515B5D",
"4  c #4E5C63",
"5  c #515E65",
"6  c #515F68",
"7  c #4E6066",
"8  c #4F6068",
"9  c #536166",
"0  c #53646B",
"q  c #59676C",
"w  c #56686F",
"e  c #5A6B6E",
"r  c #556771",
"t  c #576A71",
"y  c #5A6E74",
"u  c #5C6F78",
"i  c #5C7077",
"p  c #5D7279",
"a  c #616B6D",
"s  c #616F70",
"d  c #637375",
"f  c #6A7575",
"g  c #6D7874",
"h  c #61767B",
"j  c #647A7E",
"k  c #6A7D7E",
"l  c #717D7D",
"z  c #6A807E",
"x  c #667D81",
"c  c #697E81",
"v  c #668081",
"b  c #6D8084",
"n  c #6C8184",
"m  c #6E8386",
"M  c #6C8484",
"N  c #6D8585",
"B  c #6F8485",
"V  c #6E8784",
"C  c #6E8686",
"Z  c #6F8787",
"A  c #6D8485",
"S  c #6E8887",
"D  c #6E8887",
"F  c #6F8789",
"G  c #6F8589",
"H  c #6F8988",
"J  c #6F8988",
"K  c #708485",
"L  c #708586",
"P  c #718687",
"I  c #728687",
"U  c #778787",
"Y  c #718586",
"T  c #708986",
"R  c #728886",
"E  c #738987",
"W  c #718A87",
"Q  c #728987",
"!  c #7B8887",
"~  c #728788",
"^  c #738788",
"/  c #728788",
"(  c #708888",
")  c #718989",
"_  c #738889",
"`  c #70888A",
"'  c #71898B",
"]  c #768888",
"[  c #74898A",
"{  c #758A8B",
"}  c #768C8A",
"|  c #778B8C",
" . c #708888",
".. c #788B89",
"X. c #788C8A",
"o. c #788C8B",
"O. c #798D8B",
"+. c #798D8C",
"@. c #7B8D8D",
"#. c #7B8E8C",
"$. c #7A8E8D",
"%. c #7D8D8C",
"&. c #7C8F8D",
"*. c #7F8F8E",
"=. c #7A8C8C",
"-. c #7D908E",
";. c #7D918F",
":. c #7E918F",
">. c #7D908E",
",. c #7F9190",
"<. c #818D8B",
"1. c #81918E",
"2. c #84958F",
"3. c #83918E",
"4. c #809391",
"5. c #839390",
"6. c #829291",
"7. c #819093",
"8. c #839392",
"9. c #849491",
"0. c #859592",
"q. c #879693",
"w. c #849492",
"e. c #8B9793",
"r. c #889794",
"t. c #899794",
"y. c #899893",
"u. c #899895",
"i. c #8A9994",
"p. c #8A9B95",
"a. c #8A9996",
"s. c #8D9995",
"d. c #8C9896",
"f. c #8F9B97",
"g. c #8C9A96",
"h. c #8C9898",
"j. c #8E9B98",
"k. c #909B97",
"l. c #909C98",
"z. c #9CA7A3",
/* pixels */
"z.b b Z x Z M x ( ( ( ( ( ( ( ( ( ( ( ( ( ( Z y 4 - - 4 w i i i y i i p p i j h p k Z ~ ( ( ( Z j w : # @ 1 i ( ( Z ( T ( h 4 5 ",
"i p c ( ( S ( ( ( ( ( ( ( ( ( ( ( ( ( ( ( ( ( ( y ; - w p p p p i i i i i p b x h Z ( ( ( Z Z c t < - - O $ 1 c b L ( Z Z y ; i ",
"p Z ( ( ( ( ( ( ( ( ( ( ( ( ( ( ( ( ( ( ( ( ( ( c y - w j ( ( j i i i i p Z j j ( Z L L Z p 4 - - - - - - @ o O - e Z M h 6 , Z ",
"b Z ( ( ( ( T ( ( ( ( ( ( ( ( ( ( ( Z Z ( ( ( ( Z j - < s 2.~ Z b c p x M j c Z L j q 5 4 < 4 w h h y w h 0 4 % @ $ = - < , ; h ",
"( ( ( ( ( Z ( ( ( ( ( ( ( ( ( ( ( ( ( ( ( ( ( ( ( M - - q 5.:.:.@.Z x M Z x Z z y 9 4 4 0 0 i c ( b k x c h t 4 - % @ @ $ $ % h ",
"( ( ( ( ( ( ( ( ( ( ( ( ( ( ( ( ( Z ( ( ( ( ( ( ( M - - 9 L r.a.9.T ( ( ( ( Z y - : w j ( T ( ( Z j k Z p i i i p 5 ; ; + o O k ",
"H ( ( ( H ( ( ( ( ( ( ( ( ( ( ( ( ( ( ( ( ( ( ( ( b - + @ < p b @.j.s.s.9.L 5 4 i b Z Z H ( ( Z p p p p i i i i i y y y < $ o ; ",
"T 1.O.( ( ( ~ ( ( ( ( ( ( ( ( ( ( ( Z ( ( ( ( 5.@.c @ o o @ - 4 q a a a a 0 e h M ( ( ( ( ( M j i i i i i j k i k j i i 0 ; X + ",
"k 5.:.| O.O.{ ( ( ( ( ( ( ( ( ( ( ( ( ( { } @.9...i o X o X X @ % % % - - 4 k T H ( Z Z ( b j y p i p i i k x j M k h h h 9 $ o ",
": c %.e.e.s.5.( { ( ( ( ( ( ( ( ( ( ( ( 5.a.y.( t % X X X o X X X X o $ 1 ~ ( ( H ( k j Z h i i i i i i i i p Z p k Z ( H x y O ",
"o @ - 1 1 k :.a.a.a.a.s.a.a.a.a.a.a.s.a.:.L h 4 % o X X O % X X X o % 4 y F ( ( ~ ( Z M p b j i i i i y i i i p y i j H ( F b t ",
". X + $ $ 9 d k U %.9.s.s.s.s.s.9.%.{ k e 5 < % O X X O - 4 ; ; = @ - 0 c ( ( H F H ( Z k x k j i i i i i i i p i i p c x x c j ",
"+ o X X X $ & - 0 h b <.<.<.3.<.K h 0 - O o o X o o @ - 4 i i y w , - d { ( ( ( ( F Z H Z j x M i i i i i i i i i i i i p y p M ",
"y @ o X X X X o o o o o o $ - - - $ o o X + - O $ , i y i i i i p y < l a.~ ( ( H F ( H ( Z x p i i y i i i y i i i i i i i i i ",
"y 0 - X . X + % % % $ o $ - - - @ O X X X + - 4 0 w p i i i y i h M y U a.~ Z ( ( ( H Z S j k x i i y i i i i i i i i i i i i i ", "i h 1 + + + @ % % & % + % % % % O o + + $ ; 4 y i p i y p j p h c Z p ..a.~ ( ( ( ( ( ( Z x M Z j p i i i i i i i i i i i i i i ",
"p Z e - ; ; % o o % - - O o o o o # ; ; 0 i i i i i p p j Z p M ( Z p ] a.{ ( T ( ( ( ( ( ( ( ( Z j p p i i i i i i i i i y i i ",
"S Z e , y y y y ; - - - - - - - 0 y y y i y i i i i p n c p L ( ( Z < y { a.@.( ( ( ( ( ( ( ( ( ( ( Z Z p i i i y i i i i i i y ",
"L y > % i i i y 7 4 7 4 4 4 4 5 y i i i i i i i j k x L Z c ( T Z j = < y %.,.5.,.~ ( ( ( ( ( ( ( ( ( ( k k k k p i i i i i p k ",
"h - O + w y p j i i p i i i y i i i i i i p j j M ( ( ( ( ( ( Z j 0 O @ - j %.a.a.@.@.@.@.( ( ( ( ( ( ( ( ( ( Z j p j j j j j Z ",
"- o X o - 0 j L p p p i i i i i i i p p p j ( ( ( ( ( ~ ( ( Z j 0 - o X o - h @.s.s.s.s.a.@.( T T T T T T T T T T T T T T T T ( ",
"- o X o o - 7 p b b M i i i i i i j b b b L ( ( ( T ( ( ( Z h 5 - o X X X O @ = 5 { 9.s.j.r.a.a.a.a.r.r.a.y.r.a.a.a.a.a.a.a.r.( ",
"- o O + X @ ; 0 k Z Z j j j j j j M H T M j y y y y y e y y 0 - @ X X X X X X O % 9 d l ..5.r.k.j.s.s.s.s.s.s.s.s.k.s.s.9.%.U i ",
"% O % ; o o @ ; w j Z ( ( Z M k k k k k i 0 , < < < < < < < < = $ + O o X X X X X X $ : w j U %.! ! ! ! ! <.<.<.<.<.<.! k i 0 = ",
"o - 4 t - O @ - - 0 h L L j t - - - - - - < p Z ( S Z ( ( ( ( ( b y , @ o X X X   X X X o % - % X X X X   % - - - - % X X X X   ",
"5 0 y y 0 - $ + - , 4 5 5 4 4 w d h h d t y M j c Z j M ( ( ( ( Z M j w 4 % o X X X X X X O + O X X X o % - % O + + O X X o X X ",
"y i p i u 9 - + $ - - - < 4 0 j Z Z M M h h c p j c x M b ( ( ( Z M Z c h 4 @ . X   X X X X X X X o X O $ $ @ X . X X X X o @ = ",
"i i i p i i 0 - o % - , y x Z ( Z c i i i i p i i h Z h j Z ( ( M p Z Z n y % o o X o X o o o o o o o o o o X o X X o o o $ , y ",
"i i k b i i y y : 0 h L Z k p Z j i i p i i i p x ( ( Z Z ( ( ( ~ Z h p p i < - & o o O - - - - - - - - - - - - - - , y y y i i ",
"p c k x c h w 4 y j M Z x x x j p i p x h h c c b ( ( ( ( Z H ( ( Z M h p c t 4 - $ $ % - 4 9 0 0 9 0 0 0 0 0 0 9 0 w y i i i i ",
"h Z x j Z p 4 < b T Z b j k M p h p h L k j ( T ~ ( ( ( ( ( ( ( T ( ( c j n x w , - - - < t i i i i p i i i p h p p p i p p i h ",
"( ( ( ( L 5 4 p Z ( b p L x h Z ( ( ~ ( ( ( Z H ( ( H ( Z ( ( ( ( ( ( ( Z p M x y - - < i i i i i i y p p p j Z h k b p b x p L ",
"~ ~ ( T L 5 0 Z L ( L Z L Z Z ~ ( ( ( ( ( ( ( ( ( ( ( ( ( ( ( ( ( ( ( ( L M L Z M - 0 y i i i i i i j Z Z Z Z ( Z Z ~ Z j j Z p ",
"e e h c k 1 0 ( ( ( ( ( H ( ( ( ( ( ( ( ( ( ( ( ( ( ( ( ( ( ( ( ( ( ( ( T ( ( } ..: t k k k k j k k b ( ( ( Z ( ( S ( L v c j 0 ",
", , 4 y t < 0 ( ( ( ( Z T S ( ( ( ( ( ( ( ( ( ( ( ( ( ( ( ( ( ( ~ ( ( ( ( ( { :.1.- e b H { { { ( H S ( ( H H ( ( ( ( Z b h t , ",
"Z d 4 - - - 0 ( ( ( ( ( ( H ( ( ( ( ( ( ( ( ( ( ( ( ( ( ( ( ( ( ( ( ( ( ( { a.9.k o $ 4 Z 9.s.r.( ( ( ( L Z Z Z Z Z b y < - : y ",
"Z Z h t w % % 4 b ( ( ( ( ( ( ( ( ( ( ( ( ( ( ( ( ( ( ( ( ( ( ( ~ ( ( ( ( T r.K , o o O $ 1 d @.a.y.:.b 4 < < < 1 < < , 0 i k M ",
"( ( c h y % + - b { O.( ( ( ( ( ( ( ( ( ( ( ( ( ( ( ( ( ( ( ( ( H ( ( ( ~ @.a.k $ X X X o $ 9 d ! ! K h < 1 4 4 4 1 < - 0 p M S ",
"( ( Z n y % o O k 1.9.~ { ( ( ( ( ( ( ( ( ( ( ( ( ( ( ( ( ( ( ( ( T ( ( { s.a.f X X   X X o o + ; ; ; , y c Z Z ( k y : ; 4 i M ",
"( ( x i y 1 % o - d O.f.s.s.r.T ( ( ( ( ( ( ( ( ( ( ( ( ( ( ( ( ( ( ( 5.k.k.O.q X X X X o % 5 i i i i i y i y p Z ( T Z h 8 - - ",
"Z k x j u 0 , $ @ > 9 d O.9.a.5.5.5.,.T H ( ( H ( ( ( H ( Z ( @.5.5.5.r.y.%.d > o @ - , < 4 t i i i i i i p i i j x x Z n h y e ",
"k h c M h p 0 , O o O - d U 9.r.a.s.a.@.} } } } } } } } } } | 9.s.s.l.a.9.k , @ o , 0 i i i i p y i i i i i i i i p h Z Z ( ( ( ",
", c x h Z h p y : @ o o * 4 p L 9.s.a.s.s.f.s.s.f.s.s.f.s.s.f.s.s.s.s.@.z - O X O y i p i i i i i i i i i i i i y k M p M ( ( ( ",
"c 1 y M p i i i y y 7 X o $ ; , , 5 h ( 9.s.s.f.f.s.s.s.s.l.s.%.M p 1 % O o . + ; y i i i i p i i i i i i i i i i i h Z j x ( ( ",
"Z 9 q i j p p j i i w - @ @ $ $ & < 0 y d g l l l l l f f f l d 9 < % O X X O % 4 i p i i i i i i i i i i i i i i i p x x M ( H ",
"~ h 5 < Z j j b h p i y < % O o % - & & O + = - - - & O . o - + X o O O O o % 4 p i i i i i i i i p i i i i p i i i i p M Z ( ( ",
"( ~ e < F ( x p Z j i p i i t - O X X X X X o & - & X X X X X X O - t i y - - 9 Z p i i i i i p i y i i i i i i p i h Z h j ~ T ",
"( ( e 1 a.O.Z Z Z Z Z M p p i t , % % % 4 0 w t t w 0 0 0 0 0 0 0 t y i y t , 9 Z M j y y i i i i y p i i i h b p j b p c Z ( ( ",
"( T e 1 9.%.@.@.T S ( Z j p y w 4 1 5 < w i i i i i i i i i i i i i i i i y 4 q n Z c j j p i i i i p h p h j M j M Z j m ( ( ( ",
"( ( e < Z 5.s.a.( ( ( ( Z k t : r j Z p y i i i i i i i i i i i i i i i i p p p p Z ( ( S h p i p p k Z p M b p Z ( ( H ( H ( ( ",
"a.{ 3 o o * w { a.s.9.L h i h Z Z x p i i i i i i i i i i i i i i i i i p Z S M p Z ( T H Z Z Z S L x p Z j h Z ( ( ( ( ( ( ( ( ",
"O.0 = o % - < 9 3 2 3 9 y j b ( ( x i i i i i i i i i p i i i i u i i j M j L Z M j n { 9.9.@.S ( ( Z b Z M n ( ( ( ( ( ( ( S ( ",
"j ; @ o , , , : O o O - y c ( ( ( c h i i i i i i i i i i i i i i i p c b h b H L h c { 9.r.%.@.O.O.( ( T ( ( ( ( ~ ( ( ( ( O.O.",
"- o   + i i i y ; + X O j ( ( ( ( ( Z p i i i i p i i i i i i i i p M j p Z T ( ( ( j y i M 5.a.s.s.,.Z ( H ( ( Z ( ( H ( :.s.a.",
"o X : y y i p p y < % O j ( ( ( ( ( ( L j y p i y i i i y p L j h Z h c Z ( ( H ( ( 0 - O ; , 4 h Z :.a.a.a.a.a.a.a.a.a.a.5.L 1 ",
"$ ; 0 i i p i i y 0 < % k ..:.( ( ( ( ( M j i i i i k p p k k x k k x b ( ( @.@.Z y , + o @ % ; 9 e d f a a a a f f f f f a 3 $ ",
", y p p i p p i i i w < j %.9.{ { { ( ( ( b p p p h Z h k Z p M n h Z ( ( { 9.:.j ; @ o   X $ - - - - % o X X o % - - - - @ X o ",
"y i k M i M x i i i i y < e { y.a.5.( ( T ( Z Z Z S ( Z ~ ( Z ( ( Z ~ ( { a.O.d - - - % X X X o o o o o X X   X o @ - - + o o - ",
"p b x j b j j Z Z j i y , , 4 j L :.r.a.@.( ( ( T ( ( ( ( ( Z ( H ( r.a.r.{ 9 - O - - - - 0 w 0 % O X X X X X X X o o O $ < w t ",
"h L x j Z j k b k y r w : - , w h U e.s.:.O.O.O.O.O.O.{ O.O.O.O.} @.9.9.<.j , @ o - , < < y i t , $ O O X O O O O + $ $ ; 0 i i ",
"( H Z Z M b j t , ; : ; : , : : - w L 9.r.r.a.s.s.s.s.s.k.k.s.s.a.e.L h w - O X O - 0 i i i i p y < - % o % ; : ; 5 i i i i i i ",
"H ( k y : , : : t k c y M b b b h 0 : , w x { a.s.s.f.s.s.s.{ x t : @ O o o   = y y y p i i i i p y , O - 0 y y y y p i i i i i ",
"h 5 < < w d i q y h j b j c ( ( Z c h w 4 : = - 1 9 5 5 3 - = % @ O o X o % 4 w i i i i p x j p i c 0 & 0 y i i i i p n n n b n ",
"U 4 < 4 h M c h i p j b h x ( ( ( Z Z h 0 - o X @ & - & @ X X . X X o O $ , t i i i i i p b j h i b y ; y p h h h h j T H ( ( M "
};
